<svg viewBox="0 0 24 24" xmlns="http://www.w3.org/2000/svg">
    <rect fill="#182825" width="100" height="100" />
    <path fill="#d7f2ec" d="m5.68 6.6-.04.09L1.48 17.4H2.9L7.15 6.59H5.68zm3.37.54v8.97h1.3V9.65l2.87 6.45h1.53V7.15h-1.27v6.45l-2.94-6.46H9.05zm7.75 0v8.97h1.45c1.46 0 2.57-.38 3.34-1.15.75-.78 1.12-1.9 1.12-3.32s-.36-2.55-1.1-3.33c-.74-.79-1.83-1.17-3.24-1.17H16.8zm1.38 1.15h.03c1.2 0 1.98.3 2.4.83a4 4 0 0 1 .67 2.49c0 .9-.15 1.6-.42 2.1v.01c-.43.83-1.3 1.24-2.66 1.24h-.02V8.3z"/>
</svg>