<?xml version="1.0" encoding="utf-8"?>
<svg xmlns="http://www.w3.org/2000/svg">
    <!-- Github icon path -->
    <symbol id="github" viewBox="0 0 16 16" xmlns="http://www.w3.org/2000/svg" fill="currentColor">
        <path
            d="M8 .2c-4.4 0-8 3.6-8 8 0 3.5 2.3 6.5 5.5 7.6.4.1.5-.2.5-.4V14c-2.2.5-2.7-1-2.7-1-.4-.9-.9-1.2-.9-1.2-.7-.5.1-.5.1-.5.8.1 1.2.8 1.2.8.7 1.3 1.9.9 2.3.7.1-.5.3-.9.5-1.1-1.8-.2-3.6-.9-3.6-4 0-.9.3-1.6.8-2.1-.1-.2-.4-1 .1-2.1 0 0 .7-.2 2.2.8.6-.2 1.3-.3 2-.3s1.4.1 2 .3c1.5-1 2.2-.8 2.2-.8.4 1.1.2 1.9.1 2.1.5.6.8 1.3.8 2.1 0 3.1-1.9 3.7-3.7 3.9.3.4.6.9.6 1.6v2.2c0 .2.1.5.6.4 3.2-1.1 5.5-4.1 5.5-7.6-.1-4.4-3.7-8-8.1-8z"></path>
    </symbol>

    <!-- LinkedIn icon path -->
    <symbol id="linkedin" viewBox="0 0 16 16" xmlns="http://www.w3.org/2000/svg" fill="currentColor">
        <path
            d="M0 1.146C0 .513.526 0 1.175 0h13.65C15.474 0 16 .513 16 1.146v13.708c0 .633-.526 1.146-1.175 1.146H1.175C.526 16 0 15.487 0 14.854V1.146zm4.943 12.248V6.169H2.542v7.225h2.401zm-1.2-8.212c.837 0 1.358-.554 1.358-1.248-.015-.709-.52-1.248-1.342-1.248-.822 0-1.359.54-1.359 1.248 0 .694.521 1.248 1.327 1.248h.016zm4.908 8.212V9.359c0-.216.016-.432.08-.586.173-.431.568-.878 1.232-.878.869 0 1.216.662 1.216 1.634v3.865h2.401V9.25c0-2.22-1.184-3.252-2.764-3.252-1.274 0-1.845.7-2.165 1.193v.025h-.016a5.54 5.54 0 0 1 .016-.025V6.169h-2.4c.03.678 0 7.225 0 7.225h2.4z"
        />
    </symbol>

    <!-- Facebook icon path -->
    <symbol id="facebook" viewBox="0 0 500 500" xmlns="http://www.w3.org/2000/svg"
        fill="currentColor">
        <circle fill="#ffffff" cx="250" cy="250" r="250" />
        <path
            d="m500,250C500,111.93,388.07,0,250,0S0,111.93,0,250c0,117.24,80.72,215.62,189.61,242.64v-166.24h-51.55v-76.4h51.55v-32.92c0-85.09,38.51-124.53,122.05-124.53,15.84,0,43.17,3.11,54.35,6.21v69.25c-5.9-.62-16.15-.93-28.88-.93-40.99,0-56.83,15.53-56.83,55.9v27.02h81.66l-14.03,76.4h-67.63v171.77c123.77-14.95,219.7-120.35,219.7-248.17Z" />
    </symbol>

    <!-- Discord icon path -->
    <symbol id="discord" viewBox="0 0 127.14 96.36" xmlns="http://www.w3.org/2000/svg"
        fill="currentColor">
        <path
            d="M107.7,8.07A105.15,105.15,0,0,0,81.47,0a72.06,72.06,0,0,0-3.36,6.83A97.68,97.68,0,0,0,49,6.83,72.37,72.37,0,0,0,45.64,0,105.89,105.89,0,0,0,19.39,8.09C2.79,32.65-1.71,56.6.54,80.21h0A105.73,105.73,0,0,0,32.71,96.36,77.7,77.7,0,0,0,39.6,85.25a68.42,68.42,0,0,1-10.85-5.18c.91-.66,1.8-1.34,2.66-2a75.57,75.57,0,0,0,64.32,0c.87.71,1.76,1.39,2.66,2a68.68,68.68,0,0,1-10.87,5.19,77,77,0,0,0,6.89,11.1A105.25,105.25,0,0,0,126.6,80.22h0C129.24,52.84,122.09,29.11,107.7,8.07ZM42.45,65.69C36.18,65.69,31,60,31,53s5-12.74,11.43-12.74S54,46,53.89,53,48.84,65.69,42.45,65.69Zm42.24,0C78.41,65.69,73.25,60,73.25,53s5-12.74,11.44-12.74S96.23,46,96.12,53,91.08,65.69,84.69,65.69Z"
        />
    </symbol>

    <!-- BoardGameGeek icon path -->
    <symbol id="bgg" viewBox="0 0 24 24" xmlns="http://www.w3.org/2000/svg" fill="currentColor">
        <path
            d="M 16.870973,5.6604271 19.008331,1 5.1505932,6.1006591 5.9080939,12.209966 4.628579,13.443659 8.443343,23 l 8.109201,-2.987661 2.818877,-6.617401 -1.210493,-1.166992 0.892644,-7.1620351 z"
        />
    </symbol>

    <!-- Cults3D icon path -->
    <symbol id="cults3d" viewBox="0 0 24 24" xmlns="http://www.w3.org/2000/svg" fill="currentColor">
        <path
            d="M5.09 8.824C3.23 10.114 2 12.314 2 14.81 2 18.775 5.1 22 8.91 22a6.64 6.64 0 0 0 3.09-.762h-.002l-.012-.007A6.66 6.66 0 0 0 15.09 22C18.9 22 22 18.775 22 14.81c0-2.498-1.231-4.701-3.094-5.99C18.716 5.026 15.69 2 11.999 2 8.312 2 5.29 5.017 5.093 8.802zm1.577-.829C7.2 5.44 9.387 3.52 12 3.52c3.008 0 5.456 2.547 5.456 5.677a5.77 5.77 0 0 1-1.769 4.18l-.76-.454-1.464.873 2.35 1.402a7.231 7.231 0 0 0 2.963-4.562 5.762 5.762 0 0 1 1.765 4.174c0 3.128-2.445 5.672-5.45 5.672-2.61 0-4.8-1.918-5.331-4.47l.777-.467V13.8l-2.35 1.405a7.292 7.292 0 0 0 2.359 5.017l-.001-.002a5.22 5.22 0 0 1-1.635.262c-3.005 0-5.45-2.545-5.45-5.672s2.445-5.672 5.45-5.672c.57 0 1.12.092 1.637.262l.003.92 1.458.867V8.382a6.63 6.63 0 0 0-3.094-.762 6.65 6.65 0 0 0-2.249.391z"
        />
    </symbol>
</svg>