<?xml version="1.0" encoding="utf-8"?>
<svg xmlns="http://www.w3.org/2000/svg">
    <!-- Github logo path -->
    <symbol id="github" viewBox="0 0 16 16" xmlns="http://www.w3.org/2000/svg">
        <path fill="currentColor"
            d="M8 .2c-4.4 0-8 3.6-8 8 0 3.5 2.3 6.5 5.5 7.6.4.1.5-.2.5-.4V14c-2.2.5-2.7-1-2.7-1-.4-.9-.9-1.2-.9-1.2-.7-.5.1-.5.1-.5.8.1 1.2.8 1.2.8.7 1.3 1.9.9 2.3.7.1-.5.3-.9.5-1.1-1.8-.2-3.6-.9-3.6-4 0-.9.3-1.6.8-2.1-.1-.2-.4-1 .1-2.1 0 0 .7-.2 2.2.8.6-.2 1.3-.3 2-.3s1.4.1 2 .3c1.5-1 2.2-.8 2.2-.8.4 1.1.2 1.9.1 2.1.5.6.8 1.3.8 2.1 0 3.1-1.9 3.7-3.7 3.9.3.4.6.9.6 1.6v2.2c0 .2.1.5.6.4 3.2-1.1 5.5-4.1 5.5-7.6-.1-4.4-3.7-8-8.1-8z"></path>
    </symbol>

    <!-- LinkedIn logo path -->
    <symbol id="linkedin" viewBox="0 0 16 16" xmlns="http://www.w3.org/2000/svg">
        <path fill="#0077b5"
            d="M0 1.146C0 .513.526 0 1.175 0h13.65C15.474 0 16 .513 16 1.146v13.708c0 .633-.526 1.146-1.175 1.146H1.175C.526 16 0 15.487 0 14.854V1.146zm4.943 12.248V6.169H2.542v7.225h2.401zm-1.2-8.212c.837 0 1.358-.554 1.358-1.248-.015-.709-.52-1.248-1.342-1.248-.822 0-1.359.54-1.359 1.248 0 .694.521 1.248 1.327 1.248h.016zm4.908 8.212V9.359c0-.216.016-.432.08-.586.173-.431.568-.878 1.232-.878.869 0 1.216.662 1.216 1.634v3.865h2.401V9.25c0-2.22-1.184-3.252-2.764-3.252-1.274 0-1.845.7-2.165 1.193v.025h-.016a5.54 5.54 0 0 1 .016-.025V6.169h-2.4c.03.678 0 7.225 0 7.225h2.4z"
        />
    </symbol>

    <!-- Discord logo path -->
    <symbol id="discord" viewBox="0 0 127.14 96.36" xmlns="http://www.w3.org/2000/svg">
        <path fill="#5865f2"
            d="M107.7,8.07A105.15,105.15,0,0,0,81.47,0a72.06,72.06,0,0,0-3.36,6.83A97.68,97.68,0,0,0,49,6.83,72.37,72.37,0,0,0,45.64,0,105.89,105.89,0,0,0,19.39,8.09C2.79,32.65-1.71,56.6.54,80.21h0A105.73,105.73,0,0,0,32.71,96.36,77.7,77.7,0,0,0,39.6,85.25a68.42,68.42,0,0,1-10.85-5.18c.91-.66,1.8-1.34,2.66-2a75.57,75.57,0,0,0,64.32,0c.87.71,1.76,1.39,2.66,2a68.68,68.68,0,0,1-10.87,5.19,77,77,0,0,0,6.89,11.1A105.25,105.25,0,0,0,126.6,80.22h0C129.24,52.84,122.09,29.11,107.7,8.07ZM42.45,65.69C36.18,65.69,31,60,31,53s5-12.74,11.43-12.74S54,46,53.89,53,48.84,65.69,42.45,65.69Zm42.24,0C78.41,65.69,73.25,60,73.25,53s5-12.74,11.44-12.74S96.23,46,96.12,53,91.08,65.69,84.69,65.69Z"
        />
    </symbol>

    <!-- BoardGameGeek logo path -->
    <symbol id="boardgamegeek" viewBox="0 0 24 24" xmlns="http://www.w3.org/2000/svg">
        <path fill="#ff5100"
            d="M 16.870973,5.6604271 19.008331,1 5.1505932,6.1006591 5.9080939,12.209966 4.628579,13.443659 8.443343,23 l 8.109201,-2.987661 2.818877,-6.617401 -1.210493,-1.166992 0.892644,-7.1620351 z"
        />
    </symbol>

    <!-- Cults3D logo path -->
    <symbol id="cults3d" viewBox="0 0 24 24" xmlns="http://www.w3.org/2000/svg">
        <path fill="#822ef5"
            d="M5.09 8.824C3.23 10.114 2 12.314 2 14.81 2 18.775 5.1 22 8.91 22a6.64 6.64 0 0 0 3.09-.762h-.002l-.012-.007A6.66 6.66 0 0 0 15.09 22C18.9 22 22 18.775 22 14.81c0-2.498-1.231-4.701-3.094-5.99C18.716 5.026 15.69 2 11.999 2 8.312 2 5.29 5.017 5.093 8.802zm1.577-.829C7.2 5.44 9.387 3.52 12 3.52c3.008 0 5.456 2.547 5.456 5.677a5.77 5.77 0 0 1-1.769 4.18l-.76-.454-1.464.873 2.35 1.402a7.231 7.231 0 0 0 2.963-4.562 5.762 5.762 0 0 1 1.765 4.174c0 3.128-2.445 5.672-5.45 5.672-2.61 0-4.8-1.918-5.331-4.47l.777-.467V13.8l-2.35 1.405a7.292 7.292 0 0 0 2.359 5.017l-.001-.002a5.22 5.22 0 0 1-1.635.262c-3.005 0-5.45-2.545-5.45-5.672s2.445-5.672 5.45-5.672c.57 0 1.12.092 1.637.262l.003.92 1.458.867V8.382a6.63 6.63 0 0 0-3.094-.762 6.65 6.65 0 0 0-2.249.391z"
        />
    </symbol>

    <!-- Gentrack defs and logo path -->
    <defs>
        <linearGradient id="gentrack-linear-gradient" x1="0.5" x2="0.5" y2="1"
            gradientUnits="objectBoundingBox">
            <stop offset="0" stop-color="#0d8" />
            <stop offset="1" stop-color="#409" />
        </linearGradient>
    </defs>
    <symbol id="gentrack" viewBox="0 0 144 145" xmlns="http://www.w3.org/2000/svg">
        <path fill="url(#gentrack-linear-gradient)"
            d="M47 0a42 42 0 0 1 17 4c-16 8-28 24-28 45a50 50 0 0 0 28 46 42 42 0 0 1-17 4C21 99 0 79 0 49S21 0 47 0zm41 0a42 42 0 0 0-17 4c16 8 28 24 28 45a50 50 0 0 1-28 46c5 3 11 4 17 4 25 0 47-20 47-50S113 0 88 0zM41 113H7c5 20 22 32 41 32a38 38 0 0 0 16-3c-11-6-20-16-23-29zm53 0a44 44 0 0 1-23 29 38 38 0 0 0 15 3c19 0 36-12 42-32H94z" />
    </symbol>

    <!-- Proquip logo path -->
    <symbol id="proquip" viewBox="0 0 310 310" xmlns="http://www.w3.org/2000/svg">
        <path fill="currentColor"
            d="M300 1c-17 2-33 4-50 8-22 6-48-6-71 3-25 7-49 16-70 28-15 8-33 17-32 37-3 9-11 17-16 24-15 15-42 36-46 53-5 12-16 26-8 40 13 5 22 22 34 31 9 12 21 17 33 24 11-1 17-12 29-9 11 11 0 0 11-23 6-16 27-12 37-1 11 7 16 27 3 34-12 8-26 2-37 9-8 3-18 8-15 19 9 11 21 17 31 25 7 8 18-1 27-4 18-9 34-32 48-38 53-23 118 36 136 16 72-103 42-192 10-248-6-10-23-3-19-17 0-15-28-12-35-11m-190 99c9 14-9 14-18 25-10 14-16 10-22-1-3-9-9-24 6-17 11 3 16-5 34-7m37 209c0 3 0-3 0 0z" />
    </symbol>

    <!-- Melbourne University logo path -->
    <symbol id="melbourneuniversity" viewBox="0 0 400 354" xmlns="http://www.w3.org/2000/svg">
        <path fill="white"
            d="m101 30-8 11c0 1 7 3 8 2a127 127 0 0 0 10-12l3 1c10 4 28 5 43 2 30-7 54-7 82-1a83 83 0 0 0 50-2 759 759 0 0 1 11 13l6-3-15-20-4 1c-10 5-17 6-29 5a988 988 0 0 0-24-2c-25-5-44-5-67 0l-12 1-13 1a48 48 0 0 1-33-7l-8 10m238 4c-53 19-47 17-79 19-23 2-31 7-33 22-1 3-2 6-5 9l-1 3 4 1 4 1 2 1a95 95 0 0 0 15 5c3 1 5 0 3-1-2-2-2-2 0-4l1-1-1-1-4-1c-2 1-2 1-1-2 2-4 0-6-5-4-2 1-2 1-2-1 2-4 0-6-3-4-2 1-2 1-3-1l-1-3c-1-1 0-1 1-1l2 1 3-2c15-11 31-16 47-13 9 2 9 2 12 1l16-7a1084 1084 0 0 0 24-8c6-1 13-8 13-11l-9 2M83 42l4 7c4 4 20 10 33 14l6 2 12 2 12 2 6 3 7 5h-1c-5-3-19-6-29-8-1 0-1 1 1 5 2 5 1 4 7 5l15 4 3 2 2-1 2-1c1 0 2 0 2-2l4-3 3-1 4-2-1 2-1 2c0 1 0 2-2 2l-2 1h-2v4h-2c-4 0-6 2-3 5l1 1-7 2 1 2v2c-3 2-3 3 0 4l3 1 3 1 1-2 7-4 5-3c2-3 5-4 7-5 2 0 2 0-1-3s-5-8-5-12c0-7-3-12-9-16-5-4-10-5-24-6-16-1-15 0-32-4a287 287 0 0 1-30-7m255 4-3 1-8 2-11 4c-8 2-20 7-19 8l13 1c15-1 27-6 30-13 2-5 2-5-2-3m-146 8c-2 0-3 1-3 2h2l4-1c3-1 3-1 2-2l-5 1M83 54 67 74l2 4c12 15 14 29 8 65-4 27-6 58-3 74 4 24 16 45 35 61 5 5 4 4 8 2 4-3 4-3 0-6a98 98 0 0 1-34-54c-4-18-3-46 4-89 5-26 3-39-7-53-3-4-3-3 2-10 6-7 6-6 3-11-1-4-1-4-2-3m5 0 8 14c6 6 18 11 31 11 5 0 5 0 4-2-3-8-4-9-10-11-12-2-26-7-31-12h-2m112 2c-4 1-9 3-8 4l7 1 9 1c4 1 4 1 4-1 2-4-4-6-12-5m-60 2c17 1 30 7 30 13 0 2-1 1-4-2-5-5-7-6-19-8-17-3-20-4-7-3m128 2c-8 0-21 5-27 10l-2 3 1 1 2 2v1l5-2 34-11c9-2 9-2 1-4h-14m63 1c-5 2-11 4-20 5h-4l-1 1-4 4-2 2c1 1 21 0 25-2 3-1 7-5 9-9 1-3 1-3-3-1m-115 0v1l-1 3c-1 1-1 2 1 2 3 1 3 1 4-1 1-1 1-1-1-3l-3-2m-24 2 2 2a15 15 0 0 1 3 4 205 205 0 0 1 7 1c2 0 4 1 5 3s1 2 3-1l1-2-1-2c-2-3-9-5-20-6v1m96 2c-11 3-24 7-35 12-6 2-6 2-5 3v4l1 1 11-2a112 112 0 0 0 37-13c5-2 6-4 4-4-7-2-6-2-13-1m-100 0c0 3 0 4 2 5 2 0 2 1 1 2h-1c-1-1-1 0-2 2v3l1 1 1 1v1c0 4 3 5 8 1 2-1 2-1 1 1l-2 5c-1 4-1 4-4 5l-1 5c-1 6 9 4 20-6 2-2 2-2 1-3-4-2-5-3-4-8 0-4-1-5-3-4-2 0-3 0-2-1l1-2h-2v1l-3-1c-4-2-4-1-5-4-2-3-6-6-7-4m31 5-3 1c-1-1-2 0 0 1h3c2-2 2-3 0-2m107 8-5 7c-1 4-3 7-8 9-4 3-4 15 0 42 6 39 7 66 4 83-5 21-18 42-35 55-4 3-4 3 0 5 4 4 4 4 7 0 18-14 30-35 35-57 4-17 3-51-2-79-6-35-4-51 8-65l2-4c0-1-1-1-6 4m-4-3c-6 2-14 2-23 1-5 0-5 0-5 2 0 6 12 10 20 6l12-10-4 1m-51 8-18 6-1 2 1 2 1 1h3l6-1 13-2 3-2 3-2h1l3-1c2-1 3-1 3 1l1 2c5-2 6-2 6 0 1 2 1 2 3 1 3-2 3-2-1-3-3-2-6-4-7-7-1-2 1-3-20 3m-164-4c0 1 6 6 9 7 4 3 11 3 19 2 3-1 3-1 1-4l-2-2h-7a67 67 0 0 1-20-3m31 3c0 1 6 6 8 6 7 3 15 2 12 0s-20-7-20-6m177 5-8 1-2 1-2 2c-1 1-1 1 3 2 5 0 7-1 10-5 2-3 2-3-1-1m-31 2-3 2-4 3-2 1-10 1-13 2-4 1-3-1a269 269 0 0 0-21-7l-4-1-1 1c-3 1-4 6-4 11l1 6c0 6 0 6 2 1 2-6 2-7 4-7l18 3c8 1 10 1 23-3a69 69 0 0 1 19-3c6-1 8-2 10-5 3-3 2-4-4-2-3 1-3 0-2-1 2-3 1-4-2-2m-146 2h-8c-6 0-6 0-4 2l2 1h3c5-1 10 0 14 2 5 3 11 4 9 1l-1-2-1-2-5-1c-5-2-6-2-9-1m46 3-6 3-4 3-7 5-2 2-9-3-11-4c-6-4-8-4-13-4l-4 2h3c3-1 6 0 6 1 1 2 1 2-1 3-4 2-1 3 3 1 3-1 2-1 8 3 12 9 15 10 16 10l22-13c2-1 4-8 3-10l-4 1m26 4c-5 5-12 9-18 9-2 0-2-1 0-1l6-2h-1c-1 0-3 0-5-2l-2-1-1 2-3 5-2 3v2c1 3 2 5 5 5l2 1v2h18l3-1c1-1 2-12 1-15V95l-3 3m86-2-3 2c-2 1-2 1 2 3 5 1 7 1 10-1 4-3 4-4-2-4l-4-1c-2-1-2-1-3 1m-180 0c-3 1-3 2-1 2 4 1 7 0 7-1 0-2-4-2-6-1m6 3v6c1 3 3 1 3-3-1-3-1-4-3-3m163 3h-4c-4 0-4 0-1 3 4 2 8 3 14 1 5-1 5-1-1-3s-6-2-8-1m-174 1c-2 0-3 2-3 3l5-1c4-1 2-4-2-2m157 1c-3 1-3 1-2 3 4 2 6 3 12 3 5-1 5-1 2-2l-5-3c-2-2-2-2-7-1m-152 1v2l1 3c1 4 2 3 3-2 0-4-2-6-4-3m107 0-1 3-6 13-1 1 5 8 6 8c1 0 2-5 1-9-1-3-1-3 1-2l9 3v-8c-1-2-1-2 2-1l9 3v-6c-1-5-1-5 1-4 3 2 5 2 6 1l1-5v-2h-15a58 58 0 0 0-12-2l-6-1m37 2c-3 1 3 5 7 5 3 0 3-1 0-2l-4-3h-3m-122 0-4 4h4c1-1 3-3 2-4h-2m4 2c-1 2 0 3 1 5l2 2c1 1 1 0 1-2 0-3 0-4-2-5-1-2-1-2-2 0m-34 1c-3 1-7 5-5 5 4 0 7-2 8-4s0-2-3-1m65 4c-7 4-7 4-6 6h6c2 0 2 0 1 1v6l4-2c2-1 2-1 2 2 0 5 2 8 3 5 4-12 4-11 2-11-4-2-6-7-5-11l-7 4m-60-3v5c2 2 2 2 3 1 1-3-2-8-3-6m95 4c-1 5-7 6-10 1-1-1-1-2 1-1 2 2 6 1 8 0 1-2 2-2 1 0m-74 0-3 3h6s2-3 1-4l-4 1m6 3v5c2 2 2 1 2-2v-4c-1-2-1-2-2 1m-31-1c-1 2-1 6 1 6l1-2 1-1-1-2-2-1m21 5-4 2 6 1 2-4-4 1m5 2-1 5c1 2 1 2 2 0 2-3 2-3 1-5s-2-1-2 0m57 1c-4 0-3 0-5 7-4 12-7 22-7 28v3h1c8-2 13 2 10 6-1 2-1 2 1 2 1-1 5 1 7 3h2v-9c0-6 1-14 4-19v23h2c3-3 6-2 8 3 2 3 2 3 4 1 3-5 6-6 8-4l1 5c-1 8 1 9 13 12l14 3c2 2 3 2 1 0v-2c2 0 5 3 6 5 1 3 2 2 3-3v-4h1c3-1 2-1-6-6l-11-7c-5-3-5-3-2 0 2 3 2 4 1 4-3-1-8-5-11-10l-13-22c-3-8-11-19-14-19h-18m-64 2-2 4 4-2c2-2 1-2-2-2m-17 7c-1 3-1 3-4 2-4-1-4-1-2 2s2 3-1 5-3 2 0 3l2 1v3c1 4 1 4 3 2 3-3 2-3 5-1s4 2 3 0v-5h3c3 0 3 0 0-3l-2-2 1-3c3-3 2-3-1-2s-3 1-5-2c-1-3-2-3-2 0m40 11c-1 3-1 3-4 2-3-2-3-2-2 1 2 3 2 3-1 6-3 2-3 2 0 3 3 0 4 0 3 2 0 5 0 5 3 3 3-3 3-3 5 0 3 2 3 2 3-2v-3h2c4-1 5-1 2-3s-3-2-2-5c2-3 2-3-2-2-3 1-3 1-4-2-1-4-1-4-3 0m32 21c-6 1-5 3 4 19 11 19 24 37 34 50 4 4 4 4 2 6-4 6-3 11 3 12 4 1 7 0 8-3 3-6 8-7 9-3 0 2 0 3-4 5-3 2-3 3-1 4 9 3 19 2 26-4 3-4 4-4 9-6 4-1 5-3 6-7v-2l-6-3c-14-10-29-23-33-29-1-2 0-2 6 4 8 7 22 18 31 22l5 3 1 3c-1 9-3 11-12 14-9 4-6 8 3 6 6-2 9-4 12-11l6-8 2-1-11-13c-13-13-15-16-19-22-5-8-11-11-25-14-11-2-15-5-15-12v-4l-2 2c-3 5-8 4-10-1-1-4-2-3-3 2s-1 5-4 2l-1-1-1 1c-2 2-3 1-8-2-2-1-2-2-3-1-3 2-6-2-4-6 1-2 0-2-5-2m-3 14v19c1 11 3 13 11 25 8 11 9 12 5 10l-12-11c-3-5-1 8 4 17 4 8 6 10 12 10 10 1 12 1 15-3l2-2 1-2 1-2c1-2 1-2-2-6a318 318 0 0 1-37-55m-77 6-2 3-2-1c-3-1-3-1-2 3 2 2 2 2-1 4s-3 2 0 3c4 0 4 0 3 3 0 4 0 4 3 2 3-3 2-3 5 0 2 2 3 2 3-2 0-3 0-3 4-3 2-1 2-1 0-3-3-2-3-2-2-5 2-3 2-3-2-2s-3 1-4-2c-1-4-1-4-3 0m49 0-1 3-1 2h-3c-3 0-3 0 0 3l2 2c-2 5-1 5 1 4 2-2 3-2 5 0 3 1 3 1 1-3l2-4c2-2 2-2-1-2h-2l-1-2-2-3m117 1-2 6c0 2 4 0 5-2 2-2-1-6-3-4m-56 5 3 4c4 7 13 18 22 29 5 6 6 7 5 9 0 2-1 2-2 0l-5-6-5-7c-11-14-24-35-18-29m-62 39c-1 3-1 3-4 2-3-2-3-1-2 2 2 4 2 3-1 5l-2 2 4 1c2 0 2 0 1 4 0 3 0 3 3 1 3-3 3-3 5 0 3 2 3 2 2-1 0-4 0-4 2-4 5 0 5-1 2-3-2-2-2-2-1-5 2-3 2-3-2-2-3 1-3 1-4-2s-1-3-3 0M30 247 7 277l3 1c12 0 21 1 27 4 3 2 4 2 4 1 1-3 5-4 16-8 12-4 16-7 16-12 0-7-10-11-30-15a2183 2183 0 0 1-13-1m327 1c-21 4-29 8-30 15 0 5 3 8 16 12 10 4 16 6 16 9l3-1c5-3 12-5 24-5l6-1-23-31-12 2m-169 6c-22 2-40 9-61 24l-36 20c-15 5-37 2-47-5-2-1-1-2-4 13l-2 16c5 11 39 14 63 6 9-4 25-12 37-21 22-16 38-21 62-21 23 0 40 5 61 21 11 8 27 17 37 20 21 8 49 7 60-1 4-4 4-3 1-20a878 878 0 0 1-4-13c-4 4-15 7-27 7-15 1-25-3-52-21a132 132 0 0 0-88-25m16 7c0 2 0 4-2 3l-3-1-3 1v3h2c2 0 3 0 3 2v2h-3l-2-1v4h4l4 1 1 1-1 2h-6l-5-1-1-6v-8c-1-2-1-2 4-2h8m12 1c4 1 5 2 3 3l-1 2-2-1c-3-2-4-2-4 0l3 3c7 2 7 7 1 9l-3 1-3-1-3-1v-2l2-1 2 1c2 2 3 2 5 0 2-1 1-2-3-4-4-1-5-2-5-5 0-4 3-6 8-4m-32 1c3 2 4 6 1 8l-1 2 2 2c3 3 3 3 1 4-2 0-2 0-4-3-3-4-5-4-3 2 1 3 1 2-2 2h-2c1-1-2-14-3-15l5-2h6m50 3 3 2 1 1-1 1-2 1c0-3-5-4-7-1-2 2-2 7-1 8 2 2 4 2 5 1 2-2 2-2 2 1v2h-2c-8 3-13-11-6-15 3-2 6-2 8-1m-55 0-1 3c1 2 5 1 6-1 0-2-1-2-5-2m-11 2-1 3h-5c-4 2-1 10 4 10 1 0 3-1 3-3 0-1 1-1 2 1l2 1-2 2c-5 5-11 3-13-3-2-7 1-12 8-12l2 1m-102 7-10 4c-11 3-13 5-12 8 1 4 6 7 16 9 5 1 11 2 12 1v-25l-6 3m183-2 1 1-1 15h-3l-1-3c1-1 1-2-2-3l-2-1-1 2h-5l1-1 6-6c5-6 4-5 7-4m78 0v24c1 1 13-1 19-3 7-2 10-4 10-8 0-2-4-5-12-7l-10-4c-7-4-7-4-7-2m-184 4 12 11-3 2-2-1h-4c-2 1-2 1-1 4l-2 2h-2c1-1-1-14-2-15 0-1 0-2 2-3h2m102 1c-2 2-2 2-1 3 2 1 2 1 2-2 1-3 0-3-1-1m16 0 2 2-2 9c0 1 1 1 4-2l4-3h1c4 2 4 2-1 10l-5 6-1-1c-2-1-3-1-2-2l6-7c0-1-1-1-5 3-6 4-5 4-4-2s0-6-2-2c-3 4-3 4-5 3l-1-1c2-1 8-11 8-13v-1l3 1m-118 6c0 3 1 3 2 3v-3c-2-2-2-2-2 0m-12 1c2 0 3 1 3 5v3l2 2c4 2 4 2 2 3s-2 1-5-1c-2-2-3-3-4-2l3 5c1 1 0 2-1 3h-2l-8-12-1-1 1-1 7-4h3m-5 4v3l1 1h1c4-2 4-4 1-4h-3m-8 4-1 3-5 3 1 3 4-2h1l1 2-2 1c-2 1-3 2-1 5l7-3h2v2l-5 3-5 2-8-13c-2 0-1-1 4-4l5-3 2 1m166 0 1 2-7 10 3 2c4 2 4 2 3 4l-2 1-5-4c-4-3-5-3-3-4l4-6c4-7 4-6 6-5m-127 6c-7 3-7 3 2 6 16 7 29 14 38 20 3 3 3 3 6 0a211 211 0 0 1 45-23l-6-3-4-2-2 1c-12 4-27 12-33 17-3 2-3 2-8-2l-34-16-4 2m-52 2c1 2 0 2-1 3l-2 1 5 11c1 1 0 2-2 2s-2 0-5-6-3-6-6-4h-1v-4l10-4c1-1 2-1 2 1m195 1c2 0 2 1 1 2l-2 15-2 1-2-2c2-2 1-3-1-5s-5-1-5 1c0 1-1 1-4-1l13-12 2 1m-245 3c3 1 4 1 5 3 4 4-1 9-6 7-2-1-2-1-3 3l-1 3h-1l-3-1c1-2 4-14 3-15h6m253 0 2 1-1 5c-2 6-3 8-1 9 4 1 4 1 6-5 2-5 2-5 1-6l2-1c3 1 3 1 2 3l-3 6c-2 6-3 8-8 7-4-2-5-4-3-13v-5c-1-1 1-2 3-1m42 1-1 2-4 1-3 1c0 3 1 4 4 3 2-1 2-1 3 1v1l-2 1c-3 0-3 1-3 3h9v2l-6 2h-5l-2-7-2-8 4-1 6-2 2 1m-55 2-2 1 4 2 1-5-3 2m-205-1c0 1 0 4-1 3h-4c-4 1-2 2 3 3 9 1 6 11-4 11l-3-1 2-3h2c3 1 6-1 6-2l-6-3c-5 0-7-4-4-7 2-2 9-2 9-1m-17 1c2 1 2 2 4 6l1 2-1 4c-1 4-1 4-4 5-7 2-12-4-9-12l1-3 2-1c3-2 4-2 6-1m-20 1-1 3c1 2 7-1 6-2 0-1-4-2-5-1m279 0c3 2 4 3 5 6 0 3-2 8-4 9-3 1-10 2-11 1v-16h10m-264 2c-1 2-3 6-2 7 1 5 6 6 8 1 1-5-3-10-6-8m258 1v10h2c4 0 5-1 5-5 0-3-1-4-3-5h-4" />
        <path fill="#040c44"
            d="m107 15-2 2a123 123 0 0 0-13 16l-2 3-1 2-1 1-4-1c-7-2-6-2-6 3v4l1 5v1l-2 2a667 667 0 0 0-17 23l4 4a45 45 0 0 1 6 8 37 37 0 0 1 6 17v13a315 315 0 0 1-5 33 164 164 0 0 0-2 20 292 292 0 0 0-1 41 65 65 0 0 0 3 17 3412 3412 0 0 0 7 18 64 64 0 0 0 8 13l2 3 5 5 1 2 13 13c2 0 1 1-1 3a230 230 0 0 0-13 6l-13 4h-3v-34c-2-7-8-12-21-16-8-2-28-5-29-3a164 164 0 0 0-13 16l-1 1-1 1v1l-2 2-2 3a111 111 0 0 1-7 10l-1 2v2l7 1a113 113 0 0 1 20 1 27 27 0 0 1 12 6v1l-2 8a287 287 0 0 1-5 20l1 5c6 10 23 15 48 13a87 87 0 0 0 26-6 147 147 0 0 0 34-20c7-5 6-5 13-2a101 101 0 0 0 6 3 119 119 0 0 0 9 4 386 386 0 0 1 33 16l3-2 1-1 2-1 3-2a50 50 0 0 1 6-4 236 236 0 0 1 32-14l3-1 2 1a49 49 0 0 1 6 4 117 117 0 0 1 11 8l2 1 4 2a98 98 0 0 0 52 15c19 0 31-4 37-13 2-3 2-5-1-13a73 73 0 0 1-1-7l-1-4-1-6c-2-5-2-7 0-7h1c4-3 15-5 30-5l7-1v-1c0-2-1-3-4-6l-1-2-2-3a87 87 0 0 1-5-7 246 246 0 0 1-14-18c0-3-9-2-25 1-7 2-14 4-20 8l-5 6-1 2v18l-1 17h-2a51 51 0 0 1-21-7l-2-2-5-2-1-1 2-2a147 147 0 0 0 24-29 182 182 0 0 0 11-25l2-7a132 132 0 0 0 2-39 315 315 0 0 0-7-47l-1-17c-1-12 0-19 3-26l9-12c3-3 4-4 3-5l-1-1-1-2c-2-2-2-2-1-3l4-8 3-6 4-9 3-6 3-11 1-2c1-3-2-3-7 0h-2a50 50 0 0 0-7 3l-4 1-4 1-7 3-11 3-5-5a91 91 0 0 0-6-7l-1-2-2-3-2-2-1-2c-3-2-3-2-6-1l-13 6a62 62 0 0 1-31 0l-17-4a257 257 0 0 0-77 4c-8 2-22 2-28 0a75 75 0 0 1-13-6l-3-1m4 7c9 5 18 6 31 5a46800 46800 0 0 1 25-2c23-5 42-5 67 0l12 2h12c12 1 19 0 29-5l4-1 15 20-6 3-6-6-5-7-4 1c-13 5-27 5-46 1-28-6-52-6-82 1a83 83 0 0 1-46-3l-5 6-5 6c-1 1-8-1-8-2l16-21 2 2m237 10c0 3-7 10-13 11a429 429 0 0 0-40 15c-3 1-3 1-12-1-16-3-32 2-47 13l-3 2-2-1c-1 0-2 0-1 1l1 3c1 2 1 2 3 1 3-2 5 0 3 4 0 2 0 2 2 1 5-2 7 0 5 4-1 3-1 3 1 2l4 1 1 1-1 1c-2 2-2 2 0 4 2 1 0 2-3 1l-3-1a95 95 0 0 1-14-5l-4-1-4-1 1-3c3-3 4-6 5-9 2-15 10-20 33-22 32-2 26 0 79-19l9-2M93 45l20 4c17 4 16 3 32 4 14 1 19 2 24 6 6 4 9 9 9 16 0 4 2 9 5 12s3 3 1 3c-2 1-5 2-7 5l-5 3-7 4-1 2-3-1-3-1c-3-1-3-2 0-4v-2l-1-2 7-2-1-1c-3-3-1-5 3-5h2v-4h2l2-1c2 0 2-1 2-2l1-2 1-2-4 2-3 1-4 3c0 2-1 2-2 2l-2 1-2 1-3-2-15-4c-6-1-5 0-7-5-2-4-2-5-1-5a112 112 0 0 1 30 8l-7-5-6-3-12-2a164 164 0 0 1-18-4c-13-4-29-10-33-14-3-3-5-7-3-7l9 3m248 1c-2 9-14 15-31 16l-13-1c-1-1 11-6 19-8a180 180 0 0 0 22-7c3-2 4-2 3 0m-144 7c1 1 1 1-2 2l-4 1h-2c0-2 6-4 8-3M85 57c3 5 3 4-3 11-5 7-5 6-2 10 10 14 12 27 7 53-7 43-8 71-4 89 4 20 17 41 34 54 4 3 4 3 0 6-4 2-3 3-8-2-19-16-31-37-35-61-3-16-1-47 3-74 6-36 4-50-8-65l-2-4 16-20c1-1 1-1 2 3m5-3c5 5 19 10 31 12 6 2 7 3 10 11 1 2 1 2-4 2-18 0-31-7-37-20-2-5-2-6 0-5m120 3c2 1 3 2 2 4 0 2 0 2-4 1l-9-1c-7-1-8-1-7-2 4-3 15-4 18-2m-78 1 15 3c12 2 14 3 19 8 3 3 4 4 4 2 0-3-6-8-11-10-7-2-30-5-27-3m150 2c8 2 8 2-1 4l-34 11-5 2v-1l-2-2-1-1 2-3c6-5 19-10 27-10h14m53 0c0 2-6 9-10 11s-24 3-25 2l2-2 4-4 1-1h4c9-1 15-3 20-5 3-2 4-2 4-1m-116 3c2 2 2 2 1 3-1 2-1 2-4 1-2 0-2-1-1-2l1-3 1-1 2 2m-20 0c9 1 12 2 13 5l1 2-1 2c-2 3-2 3-3 1s-3-3-5-3h-4l-3-1-1-1-2-3-2-3 7 1m98 2 4 1c2 0 1 2-4 4l-3 2c-3 3-12 6-34 11l-11 2-1-1v-4c-1-1-1-1 5-3a273 273 0 0 1 44-12m-106 0 4 4c1 3 1 2 5 4l3 1v-1h2l-1 2c-1 1 0 1 2 1 2-1 3 0 3 4-1 5 0 6 4 8 1 1 1 1-1 3-11 10-21 12-20 6l1-5c3-1 3-1 4-5l2-5c1-2 1-2-1-1-5 4-8 3-8-1v-1l-1-1-1-1v-3c1-2 1-3 2-2h1c1-1 1-2-1-2l-2-2c0-4 1-4 3-3m30 5-4 3-2-2h1l3-1h2m111 4-2 4c-12 14-14 30-8 65 5 28 6 62 2 79-5 22-17 43-35 57-3 4-3 4-7 0-4-2-4-2 0-5 17-13 30-34 35-55 3-17 2-44-4-83-4-27-4-39 0-42 5-2 7-5 8-9l5-7c5-5 6-5 6-4m-7 0c0 2-9 9-11 10-8 4-20 0-20-6 0-2 0-2 5-2a58 58 0 0 0 27-2h-1m-34 6c1 3 4 5 7 7 4 1 4 1 1 3-2 1-2 1-3-1 0-2-1-2-6 0l-1-2c0-2-1-2-3-1l-3 1h-1l-3 2-3 2-13 2-6 1h-3l-1-1-1-2 1-2 18-6c21-6 19-5 20-3m-181 0 17 2h7l2 2c2 3 2 3-1 4-11 2-16 1-25-6-4-3-5-4 0-2m36 3 12 5c3 2-5 3-12 0-2 0-8-5-8-6l8 1m171 3-3 5c-3 2-4 2-8 2-4-1-4-1-3-2l2-2 2-1 8-1 2-1m-30 3-1 2c-1 1-1 2 2 1 6-2 7-1 4 2-2 3-4 4-10 5a1395 1395 0 0 0-42 6l-18-3c-2 0-2 1-4 7-2 5-2 5-2-1l-1-6c0-5 1-10 4-11l1-1 4 1 6 2 7 3 8 2 3 1 4-1 13-2 10-1 2-1 4-3 3-2h3m-140 3 5 1 1 2 1 2c2 3-4 2-9-1-4-2-9-3-14-2h-3l-2-1c-2-2-2-2 4-2h8c3-1 4-1 9 1m41 1c1 2-1 9-3 10l-22 13c-1 0-4-1-16-10-6-4-5-4-8-3-4 2-7 1-3-1 2-1 2-1 1-3 0-1-3-2-6-1h-3l4-2c5 0 7 0 13 4l11 4 9 3 2-2 7-5 4-3c4-3 10-5 10-4m25 6v6c1 3 0 14-1 15l-3 1h-18v-2l-2-1c-3 0-4-2-5-5v-2l2-3 3-5 1-2 2 1c2 2 4 2 5 2h1l-6 2c-2 0-2 1 0 1 6 0 13-4 18-9l3-3v4m86-4 4 1c6 0 6 1 2 4-3 2-5 2-10 1-4-2-4-2-2-3l3-2c1-2 1-2 3-1m-178 1c3 2-1 3-6 2-2 0-2-1 1-2h5m4 6c0 4-2 6-3 3v-6c2-1 2 0 3 3m168 1c6 2 6 2 1 3-6 2-10 1-14-1-3-3-3-3 1-3h4c2-1 2-1 8 1m-178-1c1 1-1 3-2 3l-5 1c0-2 5-5 7-4m160 3 5 3c3 1 3 1-2 2-6 0-8-1-12-3-1-2-1-2 2-3 5-1 5-1 7 1m-156 0v7c-1 1-1 1-2-2l-1-3v-2c1-2 2-2 3 0m110 1a305 305 0 0 0 25 2h2v2l-1 5c-1 1-3 1-6-1-2-1-2-1-1 4v6l-9-3c-3-1-3-1-2 1v8l-9-3c-2-1-2-1-1 2 1 4 0 9-1 9l-6-8-5-8 1-1a54 54 0 0 0 7-16l6 1m34 1 4 3c3 1 3 2 0 2s-5-1-6-3l-1-2h3m-123 0c1 1-1 3-2 4h-4c0-2 4-5 6-4m4 2c2 1 2 2 2 5 0 2 0 3-1 2l-2-2c-1-2-2-3-1-5s1-2 2 0m-33 1c2 1-1 4-5 4h-3c0-2 7-6 8-4m69 0c-1 4 1 9 5 11 2 0 2-1-2 11-1 3-3 0-3-5 0-3 0-3-2-2l-4 2v-6c1-1 1-1-1-1-3 1-7 0-7-2l14-9v1m-65 2 1 5c-1 1-1 1-3-1-1-3 0-7 2-4m92 3c-2 1-6 2-8 0-2-1-2 0-1 1 3 5 9 4 10-1 1-2 0-2-1 0m-69-1c1 1-1 4-1 4h-6c0-2 7-5 7-4m4 3v4c0 3 0 4-2 2v-5c1-3 1-3 2-1m-31 1 1 2-1 1c-1 3-2 3-2 1-1-4 0-6 2-4m23 3-2 4-6-1c0-1 7-4 8-3m3 3c1 2 1 2-1 5-1 2-1 2-2 0l1-5c0-1 1-2 2 0m73 1c3 0 11 11 14 19l13 22c3 5 8 9 11 10 1 0 1-1-1-4-3-3-3-3 2 0l11 7c8 5 9 5 6 6h-1v4c-1 5-2 6-3 3-1-2-4-5-6-5v2c2 2 1 2-1 0l-14-3c-12-3-14-4-13-12l-1-5c-2-2-5-1-8 4-2 2-2 2-4-1-2-5-5-6-8-3h-2v-23c-3 5-4 13-4 19v9h-2c-2-2-6-4-7-3-2 0-2 0-1-2 3-4-2-8-10-6h-1v-3c0-6 3-16 7-28 2-7 1-7 5-7h18m-79 2c1 2-3 4-5 4l2-4h3m-18 7c2 3 2 3 5 2s4-1 1 2l-1 3 2 2c3 3 3 3 0 3h-3v5c1 2 0 2-3 0s-2-2-5 1c-2 2-2 2-3-2v-3l-2-1c-3-1-3-1 0-3s3-2 1-5-2-3 2-2c3 1 3 1 4-2 0-3 1-3 2 0m41 11c1 3 1 3 4 2 4-1 4-1 2 2-1 3-1 3 2 5s2 2-2 3h-2v3c0 4 0 4-3 2-2-3-2-3-5 0-3 2-3 2-3-3 1-2 0-2-3-2-3-1-3-1 0-3 3-3 3-3 1-6-1-3-1-3 2-1 3 1 3 1 4-2 2-4 2-4 3 0m34 21v2c-2 4 1 8 4 6 1-1 1 0 3 1 5 3 6 4 8 2l1-1 1 1c3 3 3 3 4-2s2-6 3-2c2 5 7 6 10 1l2-2v4c0 7 4 10 15 12 14 3 20 6 25 14 4 6 6 9 19 22l11 13-2 1-6 8c-3 7-6 9-12 11-9 2-12-2-3-6 9-3 11-5 12-14l-1-3-5-3a201 201 0 0 1-37-26c4 6 19 19 33 29l6 3v2c-1 4-2 6-6 7-5 2-6 2-9 6-7 6-17 7-26 4-2-1-2-2 1-4 4-2 4-3 4-5-1-4-6-3-9 3-1 3-4 4-8 3-6-1-7-6-3-12 2-2 2-2-2-6-15-18-42-60-42-66 0-2 7-4 9-3m-5 19c10 18 21 35 34 50 3 4 3 4 2 6l-1 2-1 2-2 2c-3 4-5 4-15 3-5 0-6 0-9-4-4-6-7-15-8-22 0-3 0-3 1-1l12 11c4 2 3 1-5-10a49 49 0 0 1-12-37c0-10 0-10 4-2m-77 1c1 3 0 3 4 2s4-1 2 2c-1 3-1 3 2 5 2 2 2 2 0 3-4 0-4 0-4 3 0 4-1 4-3 2-3-3-2-3-5 0-3 2-3 2-3-2 1-3 1-3-3-3-3-1-3-1 0-3s3-2 1-4c-1-4-1-4 2-3l2 1 2-3c2-4 2-4 3 0m48 3 1 2h2c3 0 3 0 1 2l-2 4c2 4 2 4-1 3-2-2-3-2-5 0-2 1-3 1-1-4l-2-2c-3-3-3-3 0-3h3l1-2c2-4 2-4 3 0m117-2c2 1 2 4-1 6s-3 1-2-3 2-4 3-3m-59 5a200 200 0 0 0 29 42c1 2 2 2 2 0 1-2 0-3-5-9a258 258 0 0 1-26-33m-58 39c1 3 1 3 4 2 4-1 4-1 2 2-1 3-1 3 1 5 3 2 3 3-2 3-2 0-2 0-2 4 1 3 1 3-2 1-2-3-2-3-5 0-3 2-3 2-3-1 1-4 1-4-1-4l-4-1 2-2c3-2 3-1 1-5-1-3-1-4 2-2 3 1 3 1 4-2 2-3 2-3 3 0M43 248c20 4 30 8 30 15 0 5-4 8-16 12-11 4-15 5-16 8 0 1-1 1-4-1-6-3-15-4-27-4l-3-1a913 913 0 0 1 24-30l12 1m327-1 22 30-6 1c-12 0-19 2-24 5l-3 1c0-3-6-5-16-9l-14-6c-5-6 0-13 12-18a412 412 0 0 1 29-4m-152 8c20 3 34 9 58 24 27 18 37 22 52 21 12 0 23-3 27-7l2-1 2 14c3 15 3 15 2 17-9 11-40 13-63 4-10-3-26-12-37-20a95 95 0 0 0-61-21c-24 0-40 5-62 21-12 9-28 17-37 21-19 6-45 6-57-1-7-4-7-4-4-21 3-15 2-14 4-13 10 7 32 10 47 5l36-20c30-21 59-28 91-23m-22 6c-5 0-5 0-4 2v8l1 6 5 1h6l1-2-1-1-4-1h-4v-4l2 1h3v-2c0-2-1-2-3-2h-2v-3l3-1 3 1c1 1 2 0 2-1 0-3-1-3-8-2m14 1c-4 2-3 7 3 9 4 2 5 3 3 4-2 2-3 2-5 0l-2-1-2 1v2l3 1 3 1 3-1c6-2 6-7-1-9l-3-3c0-2 1-2 4 0l2 1 1-2 1-1c0-2-7-3-10-2m-32 1-5 2c1 1 4 14 3 15h2c3 0 3 1 2-2l-1-4c1-1 2 0 4 2 2 3 2 3 4 3 2-1 2-1-1-4l-2-2 1-2c2-1 2-1 2-3 0-5-3-6-9-5m51 3-3 1c-7 4-2 18 6 15h2v-2c0-3 0-3-2-1-1 1-3 1-5-1-1-1-1-6 1-8 2-3 7-2 7 1l2-1 1-1-1-1c-3-3-6-3-8-2m-46 1c1 1 0 3-3 3-1 1-1 0-2-1l1-3 4 1m-21 1c-4 1-6 5-4 11s8 8 13 3l2-2-2-1c-1-2-2-2-2-1 0 2-2 3-3 3-5 0-8-8-4-10h5l1-3h-6m-89 16c0 15 0 14-5 13-14-2-23-5-24-10-1-3 1-5 12-8a105 105 0 0 0 16-7l1 12m169-7-6 6-1 1h5l1-2 2 1c3 1 3 2 2 3l1 3h3l1-15-1-1c-3-1-2-2-7 4m92-2 10 4c8 2 12 5 12 7 0 4-3 6-10 8-6 2-18 4-19 3v-24c0-2 0-2 7 2m-193 2c-2 1-2 2-2 3 1 1 3 14 2 15h2l2-2c-1-3-1-3 1-4h4l2 1 3-2-12-11h-2m105 2c0 3 0 3-2 2-1-1-1-1 1-3 1-2 2-2 1 1m12-2v1c0 2-6 12-8 13l1 1c2 1 2 1 5-3 2-4 3-4 2 2s-2 6 4 2c4-4 5-4 5-3l-6 7c-1 1 0 1 2 2l1 1 5-6c5-8 5-8 1-10h-1l-4 3c-3 3-4 3-4 2l2-9-2-2-3-1m-113 7v3c-1 0-2 0-2-3 0-2 0-2 2 0m-17 1-7 4-1 1 1 1 8 12h2c1-1 2-2 1-3l-3-5c1-1 2 0 4 2 3 2 3 2 5 1s2-1-2-3l-2-2v-3c0-4-1-5-3-5h-3m3 4c1 1-1 2-3 4h-1l-1-1v-3h5m-15 3-5 3c-5 3-6 4-4 4l8 13 5-2 5-3v-2h-2l-7 3c-2-3-1-4 1-5l2-1-1-2h-1l-4 2-1-3 5-3 1-3-2-1m162 6-4 6c-2 1-1 1 3 4l5 4 2-1c1-2 1-2-3-4l-3-2 7-10-3-3-4 6m-112 1 29 14c5 4 5 4 8 2 6-5 21-13 33-17l2-1 4 2 6 3-7 3c-17 8-30 14-38 20-3 3-3 3-6 0-9-6-22-13-38-20-9-3-9-3-2-6 4-2 3-2 9 0m-63 1-10 4v4h1c3-2 3-2 6 4s3 6 5 6 3-1 2-2l-5-11 2-1c1-1 2-1 1-3 0-2-1-2-2-1m188 7-6 6c3 2 4 2 4 1 0-2 3-3 5-1s3 3 1 5l2 2 2-1 2-15c1-1 1-2-1-2-3-1-2-2-9 5m-242-2c1 1-2 13-3 15l3 1h1l1-3c1-4 1-4 3-3 7 2 11-6 4-9l-9-1m256 0v6c-2 9-1 11 3 13 5 1 6-1 8-7l3-6c1-2 1-2-2-3l-2 1c1 1 1 1-1 6-2 6-2 6-6 5-2-1-1-3 1-9l1-5-5-1m43 0-6 2-4 1 2 8 2 7h5l6-2v-2h-9c0-2 0-3 3-3l2-1v-1c-1-2-1-2-3-1-3 1-4 0-4-3l3-1 5-2c0-2 0-3-2-2m-50 1-1 5-4-2 4-3h1m-215 1c-6 2-4 8 2 8l6 3c0 1-3 3-6 2h-2l-2 3 3 1c10 0 13-10 4-11-5-1-7-2-3-3h4c1 1 1-2 1-3h-7m-16 2-2 1-1 3c-3 8 2 14 9 12 3-1 3-1 4-5l1-4-1-2c-2-6-4-7-10-5m-10 0 1 2-6 1 1-3h4m265 0v16c1 1 8 0 11-1 2-1 4-6 4-9-1-5-3-6-10-6h-5m-250 2 2 5c1 4-4 8-7 5-3-4 0-12 5-10m258 1c2 1 3 2 3 5 0 4-1 5-5 5h-2v-10h4" />
    </symbol>

    <!-- Bun defs and logo path -->
    <defs>
        <clipPath id="bun-clip">
            <rect width="80" height="70" fill="white" />
        </clipPath>
    </defs>
    <symbol id="bun" viewBox="0 0 80 70" xmlns="http://www.w3.org/2000/svg">
        <g clip-path="url(#bun-clip)">
            <path
                d="M71.0899 20.7402C70.9299 20.5702 70.7599 20.4002 70.5899 20.2402C70.4199 20.0802 70.2599 19.9002 70.0899 19.7402C69.9199 19.5802 69.7599 19.4002 69.5899 19.2402C69.4199 19.0802 69.2599 18.9002 69.0899 18.7402C68.9199 18.5802 68.7599 18.4002 68.5899 18.2402C68.4199 18.0802 68.2599 17.9002 68.0899 17.7402C67.9199 17.5802 67.7599 17.4002 67.5899 17.2402C72.5501 22.115 75.3917 28.7465 75.4999 35.7002C75.4999 52.2702 58.6799 65.7502 37.9999 65.7502C26.4199 65.7502 16.0599 61.5202 9.16992 54.8902L9.66992 55.3902L10.1699 55.8902L10.6699 56.3902L11.1699 56.8902L11.6699 57.3902L12.1699 57.8902L12.6699 58.3902C19.5499 65.3002 30.1399 69.7502 41.9999 69.7502C62.6799 69.7502 79.4999 56.2702 79.4999 39.7502C79.4999 32.6902 76.4599 26.0002 71.0899 20.7402Z"
                fill="black" />
            <path
                d="M73 35.7C73 50.91 57.33 63.24 38 63.24C18.67 63.24 3 50.91 3 35.7C3 26.27 9 17.94 18.22 13C27.44 8.06 33.18 3 38 3C42.82 3 46.94 7.13 57.78 13C67 17.94 73 26.27 73 35.7Z"
                fill="#FBF0DF" />
            <path
                d="M72.9999 35.6999C72.995 33.746 72.7259 31.8017 72.1999 29.9199C69.4699 63.2199 28.8499 64.8199 12.8799 54.8599C20.0589 60.4243 28.918 63.3797 37.9999 63.2399C57.2999 63.2399 72.9999 50.8899 72.9999 35.6999Z"
                fill="#F6DECE" />
            <path
                d="M24.53 11.17C29 8.49 34.94 3.46 40.78 3.45C39.8816 3.1596 38.9442 3.00786 38 3C35.58 3 33 4.25 29.75 6.13C28.62 6.79 27.45 7.52 26.21 8.28C23.88 9.72 21.21 11.35 18.21 12.98C8.69 18.13 3 26.62 3 35.7C3 36.1 3 36.5 3 36.89C9.06 15.48 20.07 13.85 24.53 11.17Z"
                fill="#FFFEFC" />
            <path fill-rule="evenodd" clip-rule="evenodd"
                d="M35.12 5.53004C35.134 7.89126 34.6382 10.2277 33.6666 12.3798C32.695 14.5319 31.2703 16.4489 29.49 18C29.21 18.25 29.43 18.73 29.79 18.59C33.16 17.28 37.71 13.36 35.79 5.45004C35.71 5.00004 35.12 5.12004 35.12 5.53004ZM37.39 5.53004C38.6136 7.52647 39.3909 9.76388 39.6688 12.0889C39.9467 14.4139 39.7186 16.7715 39 19C38.88 19.35 39.31 19.65 39.55 19.36C41.74 16.56 43.65 11 37.93 5.00004C37.64 4.74004 37.19 5.14004 37.39 5.49004V5.53004ZM40.15 5.36004C42.0661 6.71659 43.6691 8.46827 44.8507 10.4969C46.0324 12.5256 46.7653 14.7841 47 17.12C46.9899 17.2042 47.0125 17.2891 47.0633 17.357C47.114 17.4249 47.189 17.4707 47.2726 17.4848C47.3561 17.499 47.442 17.4804 47.5123 17.433C47.5825 17.3855 47.6318 17.3129 47.65 17.23C48.57 13.74 48.05 7.79004 40.48 4.70004C40.08 4.54004 39.82 5.08004 40.15 5.32004V5.36004ZM21.69 15.76C23.9692 15.0791 26.0795 13.9258 27.8835 12.3751C29.6874 10.8244 31.1445 8.91123 32.16 6.76004C32.34 6.40004 32.91 6.54004 32.82 6.94004C31.09 14.94 25.3 16.61 21.7 16.39C21.32 16.4 21.33 15.87 21.69 15.76Z"
                fill="#CCBEA7" />
            <path
                d="M38 65.75C17.32 65.75 0.5 52.27 0.5 35.7C0.5 25.7 6.68 16.37 17.03 10.78C20.03 9.18 22.6 7.57 24.89 6.16C26.15 5.38 27.34 4.65 28.49 3.97C32 1.89 35 0.5 38 0.5C41 0.5 43.62 1.7 46.9 3.64C47.9 4.21 48.9 4.83 49.97 5.51C52.46 7.05 55.27 8.79 58.97 10.78C69.32 16.37 75.5 25.69 75.5 35.7C75.5 52.27 58.68 65.75 38 65.75ZM38 3C35.58 3 33 4.25 29.75 6.13C28.62 6.79 27.45 7.52 26.21 8.28C23.88 9.72 21.21 11.35 18.21 12.98C8.69 18.13 3 26.62 3 35.7C3 50.89 18.7 63.25 38 63.25C57.3 63.25 73 50.89 73 35.7C73 26.62 67.31 18.13 57.78 13C54 11 51.05 9.12 48.66 7.64C47.57 6.97 46.57 6.35 45.66 5.8C42.63 4 40.42 3 38 3Z"
                fill="black" />
            <path
                d="M45.0501 42.9998C44.6009 44.8397 43.5783 46.4891 42.1301 47.7098C41.0429 48.7637 39.6354 49.4252 38.1301 49.5898C36.5796 49.4513 35.1227 48.7881 34.0001 47.7098C32.5667 46.4834 31.5585 44.8346 31.1201 42.9998C31.1056 42.8908 31.1162 42.78 31.1511 42.6758C31.186 42.5716 31.2443 42.4768 31.3215 42.3986C31.3987 42.3204 31.4928 42.261 31.5966 42.2248C31.7003 42.1886 31.811 42.1766 31.9201 42.1898H44.2601C44.3684 42.1782 44.4779 42.1914 44.5804 42.2284C44.6829 42.2653 44.7756 42.325 44.8517 42.403C44.9278 42.481 44.9851 42.5752 45.0195 42.6786C45.0539 42.7819 45.0643 42.8918 45.0501 42.9998Z"
                fill="#B71422" />
            <path
                d="M34.0001 47.7892C35.1204 48.8682 36.572 49.5376 38.1201 49.6892C39.6646 49.5354 41.1123 48.8661 42.2301 47.7892C42.5876 47.4559 42.9217 47.0984 43.2301 46.7192C42.614 46.0203 41.8616 45.4549 41.0189 45.0576C40.1762 44.6603 39.2612 44.4397 38.3301 44.4092C37.3338 44.4328 36.3581 44.6981 35.4871 45.1824C34.6162 45.6667 33.8759 46.3554 33.3301 47.1892C33.5601 47.3992 33.7601 47.5992 34.0001 47.7892Z"
                fill="#FF6164" />
            <path
                d="M34.1602 46.9992C34.6559 46.3583 35.2905 45.8382 36.0163 45.478C36.742 45.1177 37.54 44.9266 38.3502 44.9192C39.8477 44.9633 41.2746 45.5662 42.3502 46.6092C42.5802 46.3592 42.8002 46.0992 43.0102 45.8392C41.738 44.6276 40.0567 43.9387 38.3002 43.9092C37.3614 43.9173 36.4361 44.1331 35.5907 44.5411C34.7452 44.9492 34.0005 45.5393 33.4102 46.2692C33.6466 46.5261 33.897 46.7698 34.1602 46.9992Z"
                fill="black" />
            <path
                d="M38.0901 50.1896C36.4237 50.0436 34.8555 49.3388 33.6401 48.1896C32.0921 46.8804 31.0026 45.1111 30.5301 43.1396C30.4962 42.9641 30.5019 42.7832 30.5469 42.6102C30.5919 42.4372 30.675 42.2764 30.7901 42.1396C30.9271 41.9741 31.1002 41.8421 31.296 41.7537C31.4918 41.6653 31.7053 41.6229 31.9201 41.6296H44.2601C44.4745 41.6251 44.6872 41.6685 44.8827 41.7568C45.0783 41.845 45.2516 41.9758 45.3901 42.1396C45.504 42.2769 45.5857 42.438 45.6289 42.6111C45.6722 42.7842 45.676 42.9648 45.6401 43.1396C45.1676 45.1111 44.078 46.8804 42.5301 48.1896C41.3172 49.3368 39.7529 50.0414 38.0901 50.1896ZM31.9201 42.7896C31.7601 42.7896 31.7201 42.8596 31.7101 42.8796C32.1328 44.5893 33.089 46.1199 34.4401 47.2496C35.428 48.2229 36.7125 48.8388 38.0901 48.9996C39.464 48.8406 40.7471 48.2325 41.7401 47.2696C43.0869 46.138 44.0394 44.6077 44.4601 42.8996C44.4382 42.8676 44.408 42.8423 44.3727 42.8264C44.3374 42.8105 44.2984 42.8047 44.2601 42.8096L31.9201 42.7896Z"
                fill="black" />
            <path
                d="M53.2201 43.6202C56.451 43.6202 59.0701 42.0801 59.0701 40.1802C59.0701 38.2804 56.451 36.7402 53.2201 36.7402C49.9893 36.7402 47.3701 38.2804 47.3701 40.1802C47.3701 42.0801 49.9893 43.6202 53.2201 43.6202Z"
                fill="#FEBBD0" />
            <path
                d="M22.9501 43.6202C26.181 43.6202 28.8001 42.0801 28.8001 40.1802C28.8001 38.2804 26.181 36.7402 22.9501 36.7402C19.7192 36.7402 17.1001 38.2804 17.1001 40.1802C17.1001 42.0801 19.7192 43.6202 22.9501 43.6202Z"
                fill="#FEBBD0" />
            <path fill-rule="evenodd" clip-rule="evenodd"
                d="M25.7002 38.8003C26.7904 38.8022 27.8567 38.4808 28.7641 37.8765C29.6715 37.2723 30.3793 36.4124 30.7979 35.4058C31.2165 34.3991 31.327 33.291 31.1155 32.2215C30.9041 31.152 30.3801 30.1692 29.6099 29.3977C28.8397 28.6261 27.8579 28.1003 26.7888 27.8869C25.7197 27.6735 24.6113 27.782 23.6039 28.1987C22.5965 28.6155 21.7354 29.3217 21.1295 30.228C20.5236 31.1344 20.2002 32.2001 20.2002 33.2903C20.2002 34.7499 20.7793 36.1499 21.8105 37.1829C22.8417 38.2159 24.2406 38.7976 25.7002 38.8003ZM50.4702 38.8003C51.5616 38.8082 52.6308 38.4918 53.5422 37.8912C54.4536 37.2906 55.166 36.4328 55.5892 35.4267C56.0124 34.4206 56.1272 33.3115 55.9192 32.24C55.7111 31.1686 55.1895 30.1831 54.4205 29.4085C53.6516 28.6339 52.6699 28.1051 51.5999 27.8892C50.53 27.6734 49.4201 27.7801 48.411 28.196C47.4018 28.6118 46.5389 29.318 45.9316 30.225C45.3244 31.1319 45.0002 32.1988 45.0002 33.2903C44.9975 34.7455 45.5717 36.1425 46.597 37.1752C47.6222 38.208 49.015 38.7923 50.4702 38.8003Z"
                fill="black" />
            <path fill-rule="evenodd" clip-rule="evenodd"
                d="M24.0002 33.64C24.41 33.642 24.8112 33.5222 25.1529 33.296C25.4947 33.0697 25.7615 32.7472 25.9197 32.3691C26.0779 31.991 26.1204 31.5745 26.0416 31.1723C25.9629 30.7701 25.7665 30.4003 25.4774 30.1098C25.1883 29.8193 24.8195 29.6212 24.4177 29.5405C24.0159 29.4598 23.5992 29.5002 23.2204 29.6566C22.8415 29.813 22.5176 30.0783 22.2897 30.4189C22.0618 30.7595 21.9402 31.1601 21.9402 31.57C21.9402 32.1172 22.1569 32.6422 22.5429 33.0302C22.929 33.4181 23.4529 33.6373 24.0002 33.64ZM48.7702 33.64C49.18 33.642 49.5812 33.5222 49.9229 33.296C50.2646 33.0697 50.5315 32.7472 50.6897 32.3691C50.8479 31.991 50.8904 31.5745 50.8116 31.1723C50.7329 30.7701 50.5365 30.4003 50.2474 30.1098C49.9583 29.8193 49.5895 29.6212 49.1877 29.5405C48.7859 29.4598 48.3692 29.5002 47.9904 29.6566C47.6115 29.813 47.2876 30.0783 47.0597 30.4189C46.8318 30.7595 46.7102 31.1601 46.7102 31.57C46.7101 32.1138 46.9241 32.6358 47.3058 33.0232C47.6876 33.4105 48.2064 33.6321 48.7502 33.64H48.7702Z"
                fill="white" />
        </g>
    </symbol>

    <!-- Vite defs and logo path-->
    <defs>
        <linearGradient id="vite-gradient-1" x1="6.00017" y1="32.9999" x2="235" y2="344"
            gradientUnits="userSpaceOnUse">
            <stop stop-color="#41D1FF" />
            <stop offset="1" stop-color="#BD34FE" />
        </linearGradient>
        <linearGradient id="vite-gradient-2" x1="194.651" y1="8.81818" x2="236.076" y2="292.989"
            gradientUnits="userSpaceOnUse">
            <stop stop-color="#FFEA83" />
            <stop offset="0.0833333" stop-color="#FFDD35" />
            <stop offset="1" stop-color="#FFA800" />
        </linearGradient>
    </defs>
    <symbol id="vite" viewBox="0 0 410 404" xmlns="http://www.w3.org/2000/svg">
        <path
            d="M399.641 59.5246L215.643 388.545C211.844 395.338 202.084 395.378 198.228 388.618L10.5817 59.5563C6.38087 52.1896 12.6802 43.2665 21.0281 44.7586L205.223 77.6824C206.398 77.8924 207.601 77.8904 208.776 77.6763L389.119 44.8058C397.439 43.2894 403.768 52.1434 399.641 59.5246Z"
            fill="url(#vite-gradient-1)" />
        <path
            d="M292.965 1.5744L156.801 28.2552C154.563 28.6937 152.906 30.5903 152.771 32.8664L144.395 174.33C144.198 177.662 147.258 180.248 150.51 179.498L188.42 170.749C191.967 169.931 195.172 173.055 194.443 176.622L183.18 231.775C182.422 235.487 185.907 238.661 189.532 237.56L212.947 230.446C216.577 229.344 220.065 232.527 219.297 236.242L201.398 322.875C200.278 328.294 207.486 331.249 210.492 326.603L212.5 323.5L323.454 102.072C325.312 98.3645 322.108 94.137 318.036 94.9228L279.014 102.454C275.347 103.161 272.227 99.746 273.262 96.1583L298.731 7.86689C299.767 4.27314 296.636 0.855181 292.965 1.5744Z"
            fill="url(#vite-gradient-2)" />
    </symbol>

    <!-- Tailwind logo path -->
    <symbol id="tailwindcss" viewBox="0 0 54 33" xmlns="http://www.w3.org/2000/svg">
        <path fill="#38bdf8"
            d="M27 0c-7.2 0-11.7 3.6-13.5 10.8 2.7-3.6 5.85-4.95 9.45-4.05 2.054.513 3.522 2.004 5.147 3.653C30.744 13.09 33.808 16.2 40.5 16.2c7.2 0 11.7-3.6 13.5-10.8-2.7 3.6-5.85 4.95-9.45 4.05-2.054-.513-3.522-2.004-5.147-3.653C36.756 3.11 33.692 0 27 0zM13.5 16.2C6.3 16.2 1.8 19.8 0 27c2.7-3.6 5.85-4.95 9.45-4.05 2.054.514 3.522 2.004 5.147 3.653C17.244 29.29 20.308 32.4 27 32.4c7.2 0 11.7-3.6 13.5-10.8-2.7 3.6-5.85 4.95-9.45 4.05-2.054-.513-3.522-2.004-5.147-3.653C23.256 19.31 20.192 16.2 13.5 16.2z" />
    </symbol>

    <!-- Biome logo path -->
    <symbol id="biome" viewBox="0 0 64 55.425" xmlns="http://www.w3.org/2000/svg">
        <path fill="#60a5fa"
            d="m32 0-14.255 24.69c5.409-1.6676 11.228-1.9148 16.869-0.58434l4.8177 1.1372-4.5328 19.22-4.8247-1.1372c-5.9293-1.3987-11.628 1.716-14.036 6.6851l-4.4595-2.1575c3.4034-7.0291 11.424-11.285 19.636-9.3476l2.2595-9.579c-8.0938-1.9081-16.624-9e-3 -23.145 5.153-6.5204 5.1607-10.329 13.028-10.329 21.344l64 7.9e-4z" />
    </symbol>

    <!-- Vercel logo path -->
    <symbol id="vercel" viewBox="0 0 28 28" xmlns="http://www.w3.org/2000/svg">
        <path fill="currentColor" d="M 14,1.88 28,26.12 H 0 Z" />
    </symbol>
</svg>