<?xml version="1.0" encoding="utf-8"?>
<svg viewBox="0 0 24 24" xmlns="http://www.w3.org/2000/svg" id="logo">
    <path fill="#822ef5"
        d="M5.09 8.824C3.23 10.114 2 12.314 2 14.81 2 18.775 5.1 22 8.91 22a6.64 6.64 0 0 0 3.09-.762h-.002l-.012-.007A6.66 6.66 0 0 0 15.09 22C18.9 22 22 18.775 22 14.81c0-2.498-1.231-4.701-3.094-5.99C18.716 5.026 15.69 2 11.999 2 8.312 2 5.29 5.017 5.093 8.802zm1.577-.829C7.2 5.44 9.387 3.52 12 3.52c3.008 0 5.456 2.547 5.456 5.677a5.77 5.77 0 0 1-1.769 4.18l-.76-.454-1.464.873 2.35 1.402a7.231 7.231 0 0 0 2.963-4.562 5.762 5.762 0 0 1 1.765 4.174c0 3.128-2.445 5.672-5.45 5.672-2.61 0-4.8-1.918-5.331-4.47l.777-.467V13.8l-2.35 1.405a7.292 7.292 0 0 0 2.359 5.017l-.001-.002a5.22 5.22 0 0 1-1.635.262c-3.005 0-5.45-2.545-5.45-5.672s2.445-5.672 5.45-5.672c.57 0 1.12.092 1.637.262l.003.92 1.458.867V8.382a6.63 6.63 0 0 0-3.094-.762 6.65 6.65 0 0 0-2.249.391z"
    />
</svg>