<?xml version="1.0" encoding="utf-8"?>
<svg viewBox="0 0 400 354" xmlns="http://www.w3.org/2000/svg" id="logo">
    <path fill="white"
        d="m101 30-8 11c0 1 7 3 8 2a127 127 0 0 0 10-12l3 1c10 4 28 5 43 2 30-7 54-7 82-1a83 83 0 0 0 50-2 759 759 0 0 1 11 13l6-3-15-20-4 1c-10 5-17 6-29 5a988 988 0 0 0-24-2c-25-5-44-5-67 0l-12 1-13 1a48 48 0 0 1-33-7l-8 10m238 4c-53 19-47 17-79 19-23 2-31 7-33 22-1 3-2 6-5 9l-1 3 4 1 4 1 2 1a95 95 0 0 0 15 5c3 1 5 0 3-1-2-2-2-2 0-4l1-1-1-1-4-1c-2 1-2 1-1-2 2-4 0-6-5-4-2 1-2 1-2-1 2-4 0-6-3-4-2 1-2 1-3-1l-1-3c-1-1 0-1 1-1l2 1 3-2c15-11 31-16 47-13 9 2 9 2 12 1l16-7a1084 1084 0 0 0 24-8c6-1 13-8 13-11l-9 2M83 42l4 7c4 4 20 10 33 14l6 2 12 2 12 2 6 3 7 5h-1c-5-3-19-6-29-8-1 0-1 1 1 5 2 5 1 4 7 5l15 4 3 2 2-1 2-1c1 0 2 0 2-2l4-3 3-1 4-2-1 2-1 2c0 1 0 2-2 2l-2 1h-2v4h-2c-4 0-6 2-3 5l1 1-7 2 1 2v2c-3 2-3 3 0 4l3 1 3 1 1-2 7-4 5-3c2-3 5-4 7-5 2 0 2 0-1-3s-5-8-5-12c0-7-3-12-9-16-5-4-10-5-24-6-16-1-15 0-32-4a287 287 0 0 1-30-7m255 4-3 1-8 2-11 4c-8 2-20 7-19 8l13 1c15-1 27-6 30-13 2-5 2-5-2-3m-146 8c-2 0-3 1-3 2h2l4-1c3-1 3-1 2-2l-5 1M83 54 67 74l2 4c12 15 14 29 8 65-4 27-6 58-3 74 4 24 16 45 35 61 5 5 4 4 8 2 4-3 4-3 0-6a98 98 0 0 1-34-54c-4-18-3-46 4-89 5-26 3-39-7-53-3-4-3-3 2-10 6-7 6-6 3-11-1-4-1-4-2-3m5 0 8 14c6 6 18 11 31 11 5 0 5 0 4-2-3-8-4-9-10-11-12-2-26-7-31-12h-2m112 2c-4 1-9 3-8 4l7 1 9 1c4 1 4 1 4-1 2-4-4-6-12-5m-60 2c17 1 30 7 30 13 0 2-1 1-4-2-5-5-7-6-19-8-17-3-20-4-7-3m128 2c-8 0-21 5-27 10l-2 3 1 1 2 2v1l5-2 34-11c9-2 9-2 1-4h-14m63 1c-5 2-11 4-20 5h-4l-1 1-4 4-2 2c1 1 21 0 25-2 3-1 7-5 9-9 1-3 1-3-3-1m-115 0v1l-1 3c-1 1-1 2 1 2 3 1 3 1 4-1 1-1 1-1-1-3l-3-2m-24 2 2 2a15 15 0 0 1 3 4 205 205 0 0 1 7 1c2 0 4 1 5 3s1 2 3-1l1-2-1-2c-2-3-9-5-20-6v1m96 2c-11 3-24 7-35 12-6 2-6 2-5 3v4l1 1 11-2a112 112 0 0 0 37-13c5-2 6-4 4-4-7-2-6-2-13-1m-100 0c0 3 0 4 2 5 2 0 2 1 1 2h-1c-1-1-1 0-2 2v3l1 1 1 1v1c0 4 3 5 8 1 2-1 2-1 1 1l-2 5c-1 4-1 4-4 5l-1 5c-1 6 9 4 20-6 2-2 2-2 1-3-4-2-5-3-4-8 0-4-1-5-3-4-2 0-3 0-2-1l1-2h-2v1l-3-1c-4-2-4-1-5-4-2-3-6-6-7-4m31 5-3 1c-1-1-2 0 0 1h3c2-2 2-3 0-2m107 8-5 7c-1 4-3 7-8 9-4 3-4 15 0 42 6 39 7 66 4 83-5 21-18 42-35 55-4 3-4 3 0 5 4 4 4 4 7 0 18-14 30-35 35-57 4-17 3-51-2-79-6-35-4-51 8-65l2-4c0-1-1-1-6 4m-4-3c-6 2-14 2-23 1-5 0-5 0-5 2 0 6 12 10 20 6l12-10-4 1m-51 8-18 6-1 2 1 2 1 1h3l6-1 13-2 3-2 3-2h1l3-1c2-1 3-1 3 1l1 2c5-2 6-2 6 0 1 2 1 2 3 1 3-2 3-2-1-3-3-2-6-4-7-7-1-2 1-3-20 3m-164-4c0 1 6 6 9 7 4 3 11 3 19 2 3-1 3-1 1-4l-2-2h-7a67 67 0 0 1-20-3m31 3c0 1 6 6 8 6 7 3 15 2 12 0s-20-7-20-6m177 5-8 1-2 1-2 2c-1 1-1 1 3 2 5 0 7-1 10-5 2-3 2-3-1-1m-31 2-3 2-4 3-2 1-10 1-13 2-4 1-3-1a269 269 0 0 0-21-7l-4-1-1 1c-3 1-4 6-4 11l1 6c0 6 0 6 2 1 2-6 2-7 4-7l18 3c8 1 10 1 23-3a69 69 0 0 1 19-3c6-1 8-2 10-5 3-3 2-4-4-2-3 1-3 0-2-1 2-3 1-4-2-2m-146 2h-8c-6 0-6 0-4 2l2 1h3c5-1 10 0 14 2 5 3 11 4 9 1l-1-2-1-2-5-1c-5-2-6-2-9-1m46 3-6 3-4 3-7 5-2 2-9-3-11-4c-6-4-8-4-13-4l-4 2h3c3-1 6 0 6 1 1 2 1 2-1 3-4 2-1 3 3 1 3-1 2-1 8 3 12 9 15 10 16 10l22-13c2-1 4-8 3-10l-4 1m26 4c-5 5-12 9-18 9-2 0-2-1 0-1l6-2h-1c-1 0-3 0-5-2l-2-1-1 2-3 5-2 3v2c1 3 2 5 5 5l2 1v2h18l3-1c1-1 2-12 1-15V95l-3 3m86-2-3 2c-2 1-2 1 2 3 5 1 7 1 10-1 4-3 4-4-2-4l-4-1c-2-1-2-1-3 1m-180 0c-3 1-3 2-1 2 4 1 7 0 7-1 0-2-4-2-6-1m6 3v6c1 3 3 1 3-3-1-3-1-4-3-3m163 3h-4c-4 0-4 0-1 3 4 2 8 3 14 1 5-1 5-1-1-3s-6-2-8-1m-174 1c-2 0-3 2-3 3l5-1c4-1 2-4-2-2m157 1c-3 1-3 1-2 3 4 2 6 3 12 3 5-1 5-1 2-2l-5-3c-2-2-2-2-7-1m-152 1v2l1 3c1 4 2 3 3-2 0-4-2-6-4-3m107 0-1 3-6 13-1 1 5 8 6 8c1 0 2-5 1-9-1-3-1-3 1-2l9 3v-8c-1-2-1-2 2-1l9 3v-6c-1-5-1-5 1-4 3 2 5 2 6 1l1-5v-2h-15a58 58 0 0 0-12-2l-6-1m37 2c-3 1 3 5 7 5 3 0 3-1 0-2l-4-3h-3m-122 0-4 4h4c1-1 3-3 2-4h-2m4 2c-1 2 0 3 1 5l2 2c1 1 1 0 1-2 0-3 0-4-2-5-1-2-1-2-2 0m-34 1c-3 1-7 5-5 5 4 0 7-2 8-4s0-2-3-1m65 4c-7 4-7 4-6 6h6c2 0 2 0 1 1v6l4-2c2-1 2-1 2 2 0 5 2 8 3 5 4-12 4-11 2-11-4-2-6-7-5-11l-7 4m-60-3v5c2 2 2 2 3 1 1-3-2-8-3-6m95 4c-1 5-7 6-10 1-1-1-1-2 1-1 2 2 6 1 8 0 1-2 2-2 1 0m-74 0-3 3h6s2-3 1-4l-4 1m6 3v5c2 2 2 1 2-2v-4c-1-2-1-2-2 1m-31-1c-1 2-1 6 1 6l1-2 1-1-1-2-2-1m21 5-4 2 6 1 2-4-4 1m5 2-1 5c1 2 1 2 2 0 2-3 2-3 1-5s-2-1-2 0m57 1c-4 0-3 0-5 7-4 12-7 22-7 28v3h1c8-2 13 2 10 6-1 2-1 2 1 2 1-1 5 1 7 3h2v-9c0-6 1-14 4-19v23h2c3-3 6-2 8 3 2 3 2 3 4 1 3-5 6-6 8-4l1 5c-1 8 1 9 13 12l14 3c2 2 3 2 1 0v-2c2 0 5 3 6 5 1 3 2 2 3-3v-4h1c3-1 2-1-6-6l-11-7c-5-3-5-3-2 0 2 3 2 4 1 4-3-1-8-5-11-10l-13-22c-3-8-11-19-14-19h-18m-64 2-2 4 4-2c2-2 1-2-2-2m-17 7c-1 3-1 3-4 2-4-1-4-1-2 2s2 3-1 5-3 2 0 3l2 1v3c1 4 1 4 3 2 3-3 2-3 5-1s4 2 3 0v-5h3c3 0 3 0 0-3l-2-2 1-3c3-3 2-3-1-2s-3 1-5-2c-1-3-2-3-2 0m40 11c-1 3-1 3-4 2-3-2-3-2-2 1 2 3 2 3-1 6-3 2-3 2 0 3 3 0 4 0 3 2 0 5 0 5 3 3 3-3 3-3 5 0 3 2 3 2 3-2v-3h2c4-1 5-1 2-3s-3-2-2-5c2-3 2-3-2-2-3 1-3 1-4-2-1-4-1-4-3 0m32 21c-6 1-5 3 4 19 11 19 24 37 34 50 4 4 4 4 2 6-4 6-3 11 3 12 4 1 7 0 8-3 3-6 8-7 9-3 0 2 0 3-4 5-3 2-3 3-1 4 9 3 19 2 26-4 3-4 4-4 9-6 4-1 5-3 6-7v-2l-6-3c-14-10-29-23-33-29-1-2 0-2 6 4 8 7 22 18 31 22l5 3 1 3c-1 9-3 11-12 14-9 4-6 8 3 6 6-2 9-4 12-11l6-8 2-1-11-13c-13-13-15-16-19-22-5-8-11-11-25-14-11-2-15-5-15-12v-4l-2 2c-3 5-8 4-10-1-1-4-2-3-3 2s-1 5-4 2l-1-1-1 1c-2 2-3 1-8-2-2-1-2-2-3-1-3 2-6-2-4-6 1-2 0-2-5-2m-3 14v19c1 11 3 13 11 25 8 11 9 12 5 10l-12-11c-3-5-1 8 4 17 4 8 6 10 12 10 10 1 12 1 15-3l2-2 1-2 1-2c1-2 1-2-2-6a318 318 0 0 1-37-55m-77 6-2 3-2-1c-3-1-3-1-2 3 2 2 2 2-1 4s-3 2 0 3c4 0 4 0 3 3 0 4 0 4 3 2 3-3 2-3 5 0 2 2 3 2 3-2 0-3 0-3 4-3 2-1 2-1 0-3-3-2-3-2-2-5 2-3 2-3-2-2s-3 1-4-2c-1-4-1-4-3 0m49 0-1 3-1 2h-3c-3 0-3 0 0 3l2 2c-2 5-1 5 1 4 2-2 3-2 5 0 3 1 3 1 1-3l2-4c2-2 2-2-1-2h-2l-1-2-2-3m117 1-2 6c0 2 4 0 5-2 2-2-1-6-3-4m-56 5 3 4c4 7 13 18 22 29 5 6 6 7 5 9 0 2-1 2-2 0l-5-6-5-7c-11-14-24-35-18-29m-62 39c-1 3-1 3-4 2-3-2-3-1-2 2 2 4 2 3-1 5l-2 2 4 1c2 0 2 0 1 4 0 3 0 3 3 1 3-3 3-3 5 0 3 2 3 2 2-1 0-4 0-4 2-4 5 0 5-1 2-3-2-2-2-2-1-5 2-3 2-3-2-2-3 1-3 1-4-2s-1-3-3 0M30 247 7 277l3 1c12 0 21 1 27 4 3 2 4 2 4 1 1-3 5-4 16-8 12-4 16-7 16-12 0-7-10-11-30-15a2183 2183 0 0 1-13-1m327 1c-21 4-29 8-30 15 0 5 3 8 16 12 10 4 16 6 16 9l3-1c5-3 12-5 24-5l6-1-23-31-12 2m-169 6c-22 2-40 9-61 24l-36 20c-15 5-37 2-47-5-2-1-1-2-4 13l-2 16c5 11 39 14 63 6 9-4 25-12 37-21 22-16 38-21 62-21 23 0 40 5 61 21 11 8 27 17 37 20 21 8 49 7 60-1 4-4 4-3 1-20a878 878 0 0 1-4-13c-4 4-15 7-27 7-15 1-25-3-52-21a132 132 0 0 0-88-25m16 7c0 2 0 4-2 3l-3-1-3 1v3h2c2 0 3 0 3 2v2h-3l-2-1v4h4l4 1 1 1-1 2h-6l-5-1-1-6v-8c-1-2-1-2 4-2h8m12 1c4 1 5 2 3 3l-1 2-2-1c-3-2-4-2-4 0l3 3c7 2 7 7 1 9l-3 1-3-1-3-1v-2l2-1 2 1c2 2 3 2 5 0 2-1 1-2-3-4-4-1-5-2-5-5 0-4 3-6 8-4m-32 1c3 2 4 6 1 8l-1 2 2 2c3 3 3 3 1 4-2 0-2 0-4-3-3-4-5-4-3 2 1 3 1 2-2 2h-2c1-1-2-14-3-15l5-2h6m50 3 3 2 1 1-1 1-2 1c0-3-5-4-7-1-2 2-2 7-1 8 2 2 4 2 5 1 2-2 2-2 2 1v2h-2c-8 3-13-11-6-15 3-2 6-2 8-1m-55 0-1 3c1 2 5 1 6-1 0-2-1-2-5-2m-11 2-1 3h-5c-4 2-1 10 4 10 1 0 3-1 3-3 0-1 1-1 2 1l2 1-2 2c-5 5-11 3-13-3-2-7 1-12 8-12l2 1m-102 7-10 4c-11 3-13 5-12 8 1 4 6 7 16 9 5 1 11 2 12 1v-25l-6 3m183-2 1 1-1 15h-3l-1-3c1-1 1-2-2-3l-2-1-1 2h-5l1-1 6-6c5-6 4-5 7-4m78 0v24c1 1 13-1 19-3 7-2 10-4 10-8 0-2-4-5-12-7l-10-4c-7-4-7-4-7-2m-184 4 12 11-3 2-2-1h-4c-2 1-2 1-1 4l-2 2h-2c1-1-1-14-2-15 0-1 0-2 2-3h2m102 1c-2 2-2 2-1 3 2 1 2 1 2-2 1-3 0-3-1-1m16 0 2 2-2 9c0 1 1 1 4-2l4-3h1c4 2 4 2-1 10l-5 6-1-1c-2-1-3-1-2-2l6-7c0-1-1-1-5 3-6 4-5 4-4-2s0-6-2-2c-3 4-3 4-5 3l-1-1c2-1 8-11 8-13v-1l3 1m-118 6c0 3 1 3 2 3v-3c-2-2-2-2-2 0m-12 1c2 0 3 1 3 5v3l2 2c4 2 4 2 2 3s-2 1-5-1c-2-2-3-3-4-2l3 5c1 1 0 2-1 3h-2l-8-12-1-1 1-1 7-4h3m-5 4v3l1 1h1c4-2 4-4 1-4h-3m-8 4-1 3-5 3 1 3 4-2h1l1 2-2 1c-2 1-3 2-1 5l7-3h2v2l-5 3-5 2-8-13c-2 0-1-1 4-4l5-3 2 1m166 0 1 2-7 10 3 2c4 2 4 2 3 4l-2 1-5-4c-4-3-5-3-3-4l4-6c4-7 4-6 6-5m-127 6c-7 3-7 3 2 6 16 7 29 14 38 20 3 3 3 3 6 0a211 211 0 0 1 45-23l-6-3-4-2-2 1c-12 4-27 12-33 17-3 2-3 2-8-2l-34-16-4 2m-52 2c1 2 0 2-1 3l-2 1 5 11c1 1 0 2-2 2s-2 0-5-6-3-6-6-4h-1v-4l10-4c1-1 2-1 2 1m195 1c2 0 2 1 1 2l-2 15-2 1-2-2c2-2 1-3-1-5s-5-1-5 1c0 1-1 1-4-1l13-12 2 1m-245 3c3 1 4 1 5 3 4 4-1 9-6 7-2-1-2-1-3 3l-1 3h-1l-3-1c1-2 4-14 3-15h6m253 0 2 1-1 5c-2 6-3 8-1 9 4 1 4 1 6-5 2-5 2-5 1-6l2-1c3 1 3 1 2 3l-3 6c-2 6-3 8-8 7-4-2-5-4-3-13v-5c-1-1 1-2 3-1m42 1-1 2-4 1-3 1c0 3 1 4 4 3 2-1 2-1 3 1v1l-2 1c-3 0-3 1-3 3h9v2l-6 2h-5l-2-7-2-8 4-1 6-2 2 1m-55 2-2 1 4 2 1-5-3 2m-205-1c0 1 0 4-1 3h-4c-4 1-2 2 3 3 9 1 6 11-4 11l-3-1 2-3h2c3 1 6-1 6-2l-6-3c-5 0-7-4-4-7 2-2 9-2 9-1m-17 1c2 1 2 2 4 6l1 2-1 4c-1 4-1 4-4 5-7 2-12-4-9-12l1-3 2-1c3-2 4-2 6-1m-20 1-1 3c1 2 7-1 6-2 0-1-4-2-5-1m279 0c3 2 4 3 5 6 0 3-2 8-4 9-3 1-10 2-11 1v-16h10m-264 2c-1 2-3 6-2 7 1 5 6 6 8 1 1-5-3-10-6-8m258 1v10h2c4 0 5-1 5-5 0-3-1-4-3-5h-4" />
    <path fill="#040c44"
        d="m107 15-2 2a123 123 0 0 0-13 16l-2 3-1 2-1 1-4-1c-7-2-6-2-6 3v4l1 5v1l-2 2a667 667 0 0 0-17 23l4 4a45 45 0 0 1 6 8 37 37 0 0 1 6 17v13a315 315 0 0 1-5 33 164 164 0 0 0-2 20 292 292 0 0 0-1 41 65 65 0 0 0 3 17 3412 3412 0 0 0 7 18 64 64 0 0 0 8 13l2 3 5 5 1 2 13 13c2 0 1 1-1 3a230 230 0 0 0-13 6l-13 4h-3v-34c-2-7-8-12-21-16-8-2-28-5-29-3a164 164 0 0 0-13 16l-1 1-1 1v1l-2 2-2 3a111 111 0 0 1-7 10l-1 2v2l7 1a113 113 0 0 1 20 1 27 27 0 0 1 12 6v1l-2 8a287 287 0 0 1-5 20l1 5c6 10 23 15 48 13a87 87 0 0 0 26-6 147 147 0 0 0 34-20c7-5 6-5 13-2a101 101 0 0 0 6 3 119 119 0 0 0 9 4 386 386 0 0 1 33 16l3-2 1-1 2-1 3-2a50 50 0 0 1 6-4 236 236 0 0 1 32-14l3-1 2 1a49 49 0 0 1 6 4 117 117 0 0 1 11 8l2 1 4 2a98 98 0 0 0 52 15c19 0 31-4 37-13 2-3 2-5-1-13a73 73 0 0 1-1-7l-1-4-1-6c-2-5-2-7 0-7h1c4-3 15-5 30-5l7-1v-1c0-2-1-3-4-6l-1-2-2-3a87 87 0 0 1-5-7 246 246 0 0 1-14-18c0-3-9-2-25 1-7 2-14 4-20 8l-5 6-1 2v18l-1 17h-2a51 51 0 0 1-21-7l-2-2-5-2-1-1 2-2a147 147 0 0 0 24-29 182 182 0 0 0 11-25l2-7a132 132 0 0 0 2-39 315 315 0 0 0-7-47l-1-17c-1-12 0-19 3-26l9-12c3-3 4-4 3-5l-1-1-1-2c-2-2-2-2-1-3l4-8 3-6 4-9 3-6 3-11 1-2c1-3-2-3-7 0h-2a50 50 0 0 0-7 3l-4 1-4 1-7 3-11 3-5-5a91 91 0 0 0-6-7l-1-2-2-3-2-2-1-2c-3-2-3-2-6-1l-13 6a62 62 0 0 1-31 0l-17-4a257 257 0 0 0-77 4c-8 2-22 2-28 0a75 75 0 0 1-13-6l-3-1m4 7c9 5 18 6 31 5a46800 46800 0 0 1 25-2c23-5 42-5 67 0l12 2h12c12 1 19 0 29-5l4-1 15 20-6 3-6-6-5-7-4 1c-13 5-27 5-46 1-28-6-52-6-82 1a83 83 0 0 1-46-3l-5 6-5 6c-1 1-8-1-8-2l16-21 2 2m237 10c0 3-7 10-13 11a429 429 0 0 0-40 15c-3 1-3 1-12-1-16-3-32 2-47 13l-3 2-2-1c-1 0-2 0-1 1l1 3c1 2 1 2 3 1 3-2 5 0 3 4 0 2 0 2 2 1 5-2 7 0 5 4-1 3-1 3 1 2l4 1 1 1-1 1c-2 2-2 2 0 4 2 1 0 2-3 1l-3-1a95 95 0 0 1-14-5l-4-1-4-1 1-3c3-3 4-6 5-9 2-15 10-20 33-22 32-2 26 0 79-19l9-2M93 45l20 4c17 4 16 3 32 4 14 1 19 2 24 6 6 4 9 9 9 16 0 4 2 9 5 12s3 3 1 3c-2 1-5 2-7 5l-5 3-7 4-1 2-3-1-3-1c-3-1-3-2 0-4v-2l-1-2 7-2-1-1c-3-3-1-5 3-5h2v-4h2l2-1c2 0 2-1 2-2l1-2 1-2-4 2-3 1-4 3c0 2-1 2-2 2l-2 1-2 1-3-2-15-4c-6-1-5 0-7-5-2-4-2-5-1-5a112 112 0 0 1 30 8l-7-5-6-3-12-2a164 164 0 0 1-18-4c-13-4-29-10-33-14-3-3-5-7-3-7l9 3m248 1c-2 9-14 15-31 16l-13-1c-1-1 11-6 19-8a180 180 0 0 0 22-7c3-2 4-2 3 0m-144 7c1 1 1 1-2 2l-4 1h-2c0-2 6-4 8-3M85 57c3 5 3 4-3 11-5 7-5 6-2 10 10 14 12 27 7 53-7 43-8 71-4 89 4 20 17 41 34 54 4 3 4 3 0 6-4 2-3 3-8-2-19-16-31-37-35-61-3-16-1-47 3-74 6-36 4-50-8-65l-2-4 16-20c1-1 1-1 2 3m5-3c5 5 19 10 31 12 6 2 7 3 10 11 1 2 1 2-4 2-18 0-31-7-37-20-2-5-2-6 0-5m120 3c2 1 3 2 2 4 0 2 0 2-4 1l-9-1c-7-1-8-1-7-2 4-3 15-4 18-2m-78 1 15 3c12 2 14 3 19 8 3 3 4 4 4 2 0-3-6-8-11-10-7-2-30-5-27-3m150 2c8 2 8 2-1 4l-34 11-5 2v-1l-2-2-1-1 2-3c6-5 19-10 27-10h14m53 0c0 2-6 9-10 11s-24 3-25 2l2-2 4-4 1-1h4c9-1 15-3 20-5 3-2 4-2 4-1m-116 3c2 2 2 2 1 3-1 2-1 2-4 1-2 0-2-1-1-2l1-3 1-1 2 2m-20 0c9 1 12 2 13 5l1 2-1 2c-2 3-2 3-3 1s-3-3-5-3h-4l-3-1-1-1-2-3-2-3 7 1m98 2 4 1c2 0 1 2-4 4l-3 2c-3 3-12 6-34 11l-11 2-1-1v-4c-1-1-1-1 5-3a273 273 0 0 1 44-12m-106 0 4 4c1 3 1 2 5 4l3 1v-1h2l-1 2c-1 1 0 1 2 1 2-1 3 0 3 4-1 5 0 6 4 8 1 1 1 1-1 3-11 10-21 12-20 6l1-5c3-1 3-1 4-5l2-5c1-2 1-2-1-1-5 4-8 3-8-1v-1l-1-1-1-1v-3c1-2 1-3 2-2h1c1-1 1-2-1-2l-2-2c0-4 1-4 3-3m30 5-4 3-2-2h1l3-1h2m111 4-2 4c-12 14-14 30-8 65 5 28 6 62 2 79-5 22-17 43-35 57-3 4-3 4-7 0-4-2-4-2 0-5 17-13 30-34 35-55 3-17 2-44-4-83-4-27-4-39 0-42 5-2 7-5 8-9l5-7c5-5 6-5 6-4m-7 0c0 2-9 9-11 10-8 4-20 0-20-6 0-2 0-2 5-2a58 58 0 0 0 27-2h-1m-34 6c1 3 4 5 7 7 4 1 4 1 1 3-2 1-2 1-3-1 0-2-1-2-6 0l-1-2c0-2-1-2-3-1l-3 1h-1l-3 2-3 2-13 2-6 1h-3l-1-1-1-2 1-2 18-6c21-6 19-5 20-3m-181 0 17 2h7l2 2c2 3 2 3-1 4-11 2-16 1-25-6-4-3-5-4 0-2m36 3 12 5c3 2-5 3-12 0-2 0-8-5-8-6l8 1m171 3-3 5c-3 2-4 2-8 2-4-1-4-1-3-2l2-2 2-1 8-1 2-1m-30 3-1 2c-1 1-1 2 2 1 6-2 7-1 4 2-2 3-4 4-10 5a1395 1395 0 0 0-42 6l-18-3c-2 0-2 1-4 7-2 5-2 5-2-1l-1-6c0-5 1-10 4-11l1-1 4 1 6 2 7 3 8 2 3 1 4-1 13-2 10-1 2-1 4-3 3-2h3m-140 3 5 1 1 2 1 2c2 3-4 2-9-1-4-2-9-3-14-2h-3l-2-1c-2-2-2-2 4-2h8c3-1 4-1 9 1m41 1c1 2-1 9-3 10l-22 13c-1 0-4-1-16-10-6-4-5-4-8-3-4 2-7 1-3-1 2-1 2-1 1-3 0-1-3-2-6-1h-3l4-2c5 0 7 0 13 4l11 4 9 3 2-2 7-5 4-3c4-3 10-5 10-4m25 6v6c1 3 0 14-1 15l-3 1h-18v-2l-2-1c-3 0-4-2-5-5v-2l2-3 3-5 1-2 2 1c2 2 4 2 5 2h1l-6 2c-2 0-2 1 0 1 6 0 13-4 18-9l3-3v4m86-4 4 1c6 0 6 1 2 4-3 2-5 2-10 1-4-2-4-2-2-3l3-2c1-2 1-2 3-1m-178 1c3 2-1 3-6 2-2 0-2-1 1-2h5m4 6c0 4-2 6-3 3v-6c2-1 2 0 3 3m168 1c6 2 6 2 1 3-6 2-10 1-14-1-3-3-3-3 1-3h4c2-1 2-1 8 1m-178-1c1 1-1 3-2 3l-5 1c0-2 5-5 7-4m160 3 5 3c3 1 3 1-2 2-6 0-8-1-12-3-1-2-1-2 2-3 5-1 5-1 7 1m-156 0v7c-1 1-1 1-2-2l-1-3v-2c1-2 2-2 3 0m110 1a305 305 0 0 0 25 2h2v2l-1 5c-1 1-3 1-6-1-2-1-2-1-1 4v6l-9-3c-3-1-3-1-2 1v8l-9-3c-2-1-2-1-1 2 1 4 0 9-1 9l-6-8-5-8 1-1a54 54 0 0 0 7-16l6 1m34 1 4 3c3 1 3 2 0 2s-5-1-6-3l-1-2h3m-123 0c1 1-1 3-2 4h-4c0-2 4-5 6-4m4 2c2 1 2 2 2 5 0 2 0 3-1 2l-2-2c-1-2-2-3-1-5s1-2 2 0m-33 1c2 1-1 4-5 4h-3c0-2 7-6 8-4m69 0c-1 4 1 9 5 11 2 0 2-1-2 11-1 3-3 0-3-5 0-3 0-3-2-2l-4 2v-6c1-1 1-1-1-1-3 1-7 0-7-2l14-9v1m-65 2 1 5c-1 1-1 1-3-1-1-3 0-7 2-4m92 3c-2 1-6 2-8 0-2-1-2 0-1 1 3 5 9 4 10-1 1-2 0-2-1 0m-69-1c1 1-1 4-1 4h-6c0-2 7-5 7-4m4 3v4c0 3 0 4-2 2v-5c1-3 1-3 2-1m-31 1 1 2-1 1c-1 3-2 3-2 1-1-4 0-6 2-4m23 3-2 4-6-1c0-1 7-4 8-3m3 3c1 2 1 2-1 5-1 2-1 2-2 0l1-5c0-1 1-2 2 0m73 1c3 0 11 11 14 19l13 22c3 5 8 9 11 10 1 0 1-1-1-4-3-3-3-3 2 0l11 7c8 5 9 5 6 6h-1v4c-1 5-2 6-3 3-1-2-4-5-6-5v2c2 2 1 2-1 0l-14-3c-12-3-14-4-13-12l-1-5c-2-2-5-1-8 4-2 2-2 2-4-1-2-5-5-6-8-3h-2v-23c-3 5-4 13-4 19v9h-2c-2-2-6-4-7-3-2 0-2 0-1-2 3-4-2-8-10-6h-1v-3c0-6 3-16 7-28 2-7 1-7 5-7h18m-79 2c1 2-3 4-5 4l2-4h3m-18 7c2 3 2 3 5 2s4-1 1 2l-1 3 2 2c3 3 3 3 0 3h-3v5c1 2 0 2-3 0s-2-2-5 1c-2 2-2 2-3-2v-3l-2-1c-3-1-3-1 0-3s3-2 1-5-2-3 2-2c3 1 3 1 4-2 0-3 1-3 2 0m41 11c1 3 1 3 4 2 4-1 4-1 2 2-1 3-1 3 2 5s2 2-2 3h-2v3c0 4 0 4-3 2-2-3-2-3-5 0-3 2-3 2-3-3 1-2 0-2-3-2-3-1-3-1 0-3 3-3 3-3 1-6-1-3-1-3 2-1 3 1 3 1 4-2 2-4 2-4 3 0m34 21v2c-2 4 1 8 4 6 1-1 1 0 3 1 5 3 6 4 8 2l1-1 1 1c3 3 3 3 4-2s2-6 3-2c2 5 7 6 10 1l2-2v4c0 7 4 10 15 12 14 3 20 6 25 14 4 6 6 9 19 22l11 13-2 1-6 8c-3 7-6 9-12 11-9 2-12-2-3-6 9-3 11-5 12-14l-1-3-5-3a201 201 0 0 1-37-26c4 6 19 19 33 29l6 3v2c-1 4-2 6-6 7-5 2-6 2-9 6-7 6-17 7-26 4-2-1-2-2 1-4 4-2 4-3 4-5-1-4-6-3-9 3-1 3-4 4-8 3-6-1-7-6-3-12 2-2 2-2-2-6-15-18-42-60-42-66 0-2 7-4 9-3m-5 19c10 18 21 35 34 50 3 4 3 4 2 6l-1 2-1 2-2 2c-3 4-5 4-15 3-5 0-6 0-9-4-4-6-7-15-8-22 0-3 0-3 1-1l12 11c4 2 3 1-5-10a49 49 0 0 1-12-37c0-10 0-10 4-2m-77 1c1 3 0 3 4 2s4-1 2 2c-1 3-1 3 2 5 2 2 2 2 0 3-4 0-4 0-4 3 0 4-1 4-3 2-3-3-2-3-5 0-3 2-3 2-3-2 1-3 1-3-3-3-3-1-3-1 0-3s3-2 1-4c-1-4-1-4 2-3l2 1 2-3c2-4 2-4 3 0m48 3 1 2h2c3 0 3 0 1 2l-2 4c2 4 2 4-1 3-2-2-3-2-5 0-2 1-3 1-1-4l-2-2c-3-3-3-3 0-3h3l1-2c2-4 2-4 3 0m117-2c2 1 2 4-1 6s-3 1-2-3 2-4 3-3m-59 5a200 200 0 0 0 29 42c1 2 2 2 2 0 1-2 0-3-5-9a258 258 0 0 1-26-33m-58 39c1 3 1 3 4 2 4-1 4-1 2 2-1 3-1 3 1 5 3 2 3 3-2 3-2 0-2 0-2 4 1 3 1 3-2 1-2-3-2-3-5 0-3 2-3 2-3-1 1-4 1-4-1-4l-4-1 2-2c3-2 3-1 1-5-1-3-1-4 2-2 3 1 3 1 4-2 2-3 2-3 3 0M43 248c20 4 30 8 30 15 0 5-4 8-16 12-11 4-15 5-16 8 0 1-1 1-4-1-6-3-15-4-27-4l-3-1a913 913 0 0 1 24-30l12 1m327-1 22 30-6 1c-12 0-19 2-24 5l-3 1c0-3-6-5-16-9l-14-6c-5-6 0-13 12-18a412 412 0 0 1 29-4m-152 8c20 3 34 9 58 24 27 18 37 22 52 21 12 0 23-3 27-7l2-1 2 14c3 15 3 15 2 17-9 11-40 13-63 4-10-3-26-12-37-20a95 95 0 0 0-61-21c-24 0-40 5-62 21-12 9-28 17-37 21-19 6-45 6-57-1-7-4-7-4-4-21 3-15 2-14 4-13 10 7 32 10 47 5l36-20c30-21 59-28 91-23m-22 6c-5 0-5 0-4 2v8l1 6 5 1h6l1-2-1-1-4-1h-4v-4l2 1h3v-2c0-2-1-2-3-2h-2v-3l3-1 3 1c1 1 2 0 2-1 0-3-1-3-8-2m14 1c-4 2-3 7 3 9 4 2 5 3 3 4-2 2-3 2-5 0l-2-1-2 1v2l3 1 3 1 3-1c6-2 6-7-1-9l-3-3c0-2 1-2 4 0l2 1 1-2 1-1c0-2-7-3-10-2m-32 1-5 2c1 1 4 14 3 15h2c3 0 3 1 2-2l-1-4c1-1 2 0 4 2 2 3 2 3 4 3 2-1 2-1-1-4l-2-2 1-2c2-1 2-1 2-3 0-5-3-6-9-5m51 3-3 1c-7 4-2 18 6 15h2v-2c0-3 0-3-2-1-1 1-3 1-5-1-1-1-1-6 1-8 2-3 7-2 7 1l2-1 1-1-1-1c-3-3-6-3-8-2m-46 1c1 1 0 3-3 3-1 1-1 0-2-1l1-3 4 1m-21 1c-4 1-6 5-4 11s8 8 13 3l2-2-2-1c-1-2-2-2-2-1 0 2-2 3-3 3-5 0-8-8-4-10h5l1-3h-6m-89 16c0 15 0 14-5 13-14-2-23-5-24-10-1-3 1-5 12-8a105 105 0 0 0 16-7l1 12m169-7-6 6-1 1h5l1-2 2 1c3 1 3 2 2 3l1 3h3l1-15-1-1c-3-1-2-2-7 4m92-2 10 4c8 2 12 5 12 7 0 4-3 6-10 8-6 2-18 4-19 3v-24c0-2 0-2 7 2m-193 2c-2 1-2 2-2 3 1 1 3 14 2 15h2l2-2c-1-3-1-3 1-4h4l2 1 3-2-12-11h-2m105 2c0 3 0 3-2 2-1-1-1-1 1-3 1-2 2-2 1 1m12-2v1c0 2-6 12-8 13l1 1c2 1 2 1 5-3 2-4 3-4 2 2s-2 6 4 2c4-4 5-4 5-3l-6 7c-1 1 0 1 2 2l1 1 5-6c5-8 5-8 1-10h-1l-4 3c-3 3-4 3-4 2l2-9-2-2-3-1m-113 7v3c-1 0-2 0-2-3 0-2 0-2 2 0m-17 1-7 4-1 1 1 1 8 12h2c1-1 2-2 1-3l-3-5c1-1 2 0 4 2 3 2 3 2 5 1s2-1-2-3l-2-2v-3c0-4-1-5-3-5h-3m3 4c1 1-1 2-3 4h-1l-1-1v-3h5m-15 3-5 3c-5 3-6 4-4 4l8 13 5-2 5-3v-2h-2l-7 3c-2-3-1-4 1-5l2-1-1-2h-1l-4 2-1-3 5-3 1-3-2-1m162 6-4 6c-2 1-1 1 3 4l5 4 2-1c1-2 1-2-3-4l-3-2 7-10-3-3-4 6m-112 1 29 14c5 4 5 4 8 2 6-5 21-13 33-17l2-1 4 2 6 3-7 3c-17 8-30 14-38 20-3 3-3 3-6 0-9-6-22-13-38-20-9-3-9-3-2-6 4-2 3-2 9 0m-63 1-10 4v4h1c3-2 3-2 6 4s3 6 5 6 3-1 2-2l-5-11 2-1c1-1 2-1 1-3 0-2-1-2-2-1m188 7-6 6c3 2 4 2 4 1 0-2 3-3 5-1s3 3 1 5l2 2 2-1 2-15c1-1 1-2-1-2-3-1-2-2-9 5m-242-2c1 1-2 13-3 15l3 1h1l1-3c1-4 1-4 3-3 7 2 11-6 4-9l-9-1m256 0v6c-2 9-1 11 3 13 5 1 6-1 8-7l3-6c1-2 1-2-2-3l-2 1c1 1 1 1-1 6-2 6-2 6-6 5-2-1-1-3 1-9l1-5-5-1m43 0-6 2-4 1 2 8 2 7h5l6-2v-2h-9c0-2 0-3 3-3l2-1v-1c-1-2-1-2-3-1-3 1-4 0-4-3l3-1 5-2c0-2 0-3-2-2m-50 1-1 5-4-2 4-3h1m-215 1c-6 2-4 8 2 8l6 3c0 1-3 3-6 2h-2l-2 3 3 1c10 0 13-10 4-11-5-1-7-2-3-3h4c1 1 1-2 1-3h-7m-16 2-2 1-1 3c-3 8 2 14 9 12 3-1 3-1 4-5l1-4-1-2c-2-6-4-7-10-5m-10 0 1 2-6 1 1-3h4m265 0v16c1 1 8 0 11-1 2-1 4-6 4-9-1-5-3-6-10-6h-5m-250 2 2 5c1 4-4 8-7 5-3-4 0-12 5-10m258 1c2 1 3 2 3 5 0 4-1 5-5 5h-2v-10h4" />
</svg>