<?xml version="1.0" encoding="utf-8"?>
<svg viewBox="0 0 310 310" xmlns="http://www.w3.org/2000/svg" id="logo">
    <path fill="currentColor"
        d="M300 1c-17 2-33 4-50 8-22 6-48-6-71 3-25 7-49 16-70 28-15 8-33 17-32 37-3 9-11 17-16 24-15 15-42 36-46 53-5 12-16 26-8 40 13 5 22 22 34 31 9 12 21 17 33 24 11-1 17-12 29-9 11 11 0 0 11-23 6-16 27-12 37-1 11 7 16 27 3 34-12 8-26 2-37 9-8 3-18 8-15 19 9 11 21 17 31 25 7 8 18-1 27-4 18-9 34-32 48-38 53-23 118 36 136 16 72-103 42-192 10-248-6-10-23-3-19-17 0-15-28-12-35-11m-190 99c9 14-9 14-18 25-10 14-16 10-22-1-3-9-9-24 6-17 11 3 16-5 34-7m37 209c0 3 0-3 0 0z" />
</svg>