<?xml version="1.0" encoding="utf-8"?>
<svg viewBox="0 0 54 54" xmlns="http://www.w3.org/2000/svg" id="logo">
    <path fill="#38bdf8"
        d="M27 10.8c-7.2 0-11.7 3.6-13.5 10.8 2.7-3.6 5.85-4.95 9.45-4.05 2.05.51 3.52 2 5.15 3.65 2.64 2.69 5.7 5.8 12.4 5.8 7.2 0 11.7-3.6 13.5-10.8-2.7 3.6-5.85 4.95-9.45 4.05-2.05-.51-3.52-2-5.15-3.65-2.64-2.69-5.7-5.8-12.4-5.8ZM13.5 27C6.3 27 1.8 30.6 0 37.8c2.7-3.6 5.85-4.95 9.45-4.05 2.05.51 3.52 2 5.15 3.65 2.64 2.69 5.7 5.8 12.4 5.8 7.2 0 11.7-3.6 13.5-10.8-2.7 3.6-5.85 4.95-9.45 4.05-2.05-.51-3.52-2-5.15-3.65-2.64-2.69-5.7-5.8-12.4-5.8Z" />
</svg>